<svg id="Capa_1" data-name="Capa 1" xmlns="http://www.w3.org/2000/svg" width="991.5892" height="81.775" viewBox="0 0 991.5892 81.775"><defs><style>.cls-1{fill:#eab13c;}</style></defs><title>TIL_Web Assets</title><path class="cls-1" d="M247.4972,9.8126c-14.61-.9961-21.181-3.8485-26.4608-6.1408C216.8827,1.8694,212.96.1667,206.9325.1667c-5.9231,0-10.1149,1.9125-14.5538,3.9369-5.8373,2.6625-12.4566,5.6782-25.9762,5.6977-14.5062-1.0053-21.0548-3.845-26.3169-6.1295C135.932,1.8694,132.0089.1667,125.9817.1667c-5.9231,0-10.1149,1.9125-14.5538,3.9369-5.8373,2.6625-12.4566,5.6782-25.9762,5.6977C70.9456,8.7961,64.3969,5.9563,59.1348,3.6719,54.9812,1.8694,51.0581.1667,45.031.1667c-5.9231,0-10.1149,1.9125-14.5538,3.9369C24.6207,6.7747,17.9815,9.8031,4.3735,9.8031a3.995,3.995,0,0,0,0,7.99c15.3445,0,23.149-3.56,29.42-6.42,4.093-1.8675,7.05-3.2165,11.2377-3.2165,4.3678,0,6.9748,1.1314,10.9221,2.8445,5.5347,2.4024,13.1147,5.6925,29.1,6.7823.09.0069.1795.0091.2692.01h.0074c15.341-.0009,23.1446-3.56,29.4146-6.42,4.093-1.8675,7.05-3.2165,11.2377-3.2165,4.3678,0,6.9748,1.1314,10.9221,2.8445,5.5347,2.4024,13.1147,5.6925,29.1,6.7823.09.0069.1795.0091.2692.01h.0074c15.341-.0009,23.1446-3.56,29.4146-6.42,4.093-1.8675,7.05-3.2165,11.2377-3.2165,4.3678,0,6.9748,1.1314,10.9221,2.8445,5.5347,2.4024,13.1147,5.6925,29.1,6.7823.0919.0069.1838.01.2757.01a3.9949,3.9949,0,0,0,.267-7.98Z"/><path class="cls-1" d="M492.6308,9.8126c-14.61-.9961-21.181-3.8485-26.4608-6.1408C462.0163,1.8694,458.0933.1667,452.0661.1667c-5.9231,0-10.1149,1.9125-14.5538,3.9369-5.8373,2.6625-12.4566,5.6782-25.9762,5.6977-14.5062-1.0053-21.0548-3.845-26.3169-6.1295C381.0656,1.8694,377.1425.1667,371.1153.1667c-5.9231,0-10.1149,1.9125-14.5538,3.9369-5.8373,2.6625-12.4566,5.6782-25.9762,5.6977-14.5062-1.0053-21.0548-3.845-26.3169-6.1295C300.1148,1.8694,296.1917.1667,290.1646.1667c-5.9231,0-10.1149,1.9125-14.5538,3.9369-5.8564,2.6711-12.4956,5.6995-26.1036,5.6995a3.995,3.995,0,0,0,0,7.99c15.3445,0,23.149-3.56,29.42-6.42,4.093-1.8675,7.05-3.2165,11.2377-3.2165,4.3678,0,6.9748,1.1314,10.9221,2.8445,5.5347,2.4024,13.1147,5.6925,29.1,6.7823.09.0069.1795.0091.2692.01h.0074c15.341-.0009,23.1446-3.56,29.4146-6.42,4.093-1.8675,7.05-3.2165,11.2377-3.2165,4.3678,0,6.9748,1.1314,10.9221,2.8445,5.5347,2.4024,13.1147,5.6925,29.1,6.7823.09.0069.1795.0091.2692.01h.0074c15.341-.0009,23.1446-3.56,29.4146-6.42,4.093-1.8675,7.05-3.2165,11.2377-3.2165,4.3678,0,6.9748,1.1314,10.9221,2.8445,5.5347,2.4024,13.1147,5.6925,29.1,6.7823.0919.0069.1838.01.2757.01a3.9949,3.9949,0,0,0,.267-7.98Z"/><path class="cls-1" d="M737.7644,9.8126c-14.61-.9961-21.181-3.8485-26.4608-6.1408C707.15,1.8694,703.2269.1667,697.2.1667c-5.9231,0-10.1149,1.9125-14.5538,3.9369-5.8373,2.6625-12.4566,5.6782-25.9762,5.6977-14.5062-1.0053-21.0548-3.845-26.3169-6.1295C626.1991,1.8694,622.2761.1667,616.2489.1667c-5.9231,0-10.1149,1.9125-14.5538,3.9369-5.8373,2.6625-12.4566,5.6782-25.9762,5.6977-14.5062-1.0053-21.0548-3.845-26.3169-6.1295C545.2484,1.8694,541.3253.1667,535.2981.1667c-5.9231,0-10.1149,1.9125-14.5538,3.9369-5.8564,2.6711-12.4956,5.6995-26.1036,5.6995a3.995,3.995,0,0,0,0,7.99c15.3445,0,23.149-3.56,29.42-6.42,4.093-1.8675,7.05-3.2165,11.2377-3.2165,4.3678,0,6.9748,1.1314,10.9221,2.8445,5.5347,2.4024,13.1147,5.6925,29.1,6.7823.09.0069.1795.0091.2692.01h.0074c15.341-.0009,23.1446-3.56,29.4146-6.42,4.093-1.8675,7.05-3.2165,11.2377-3.2165,4.3678,0,6.9748,1.1314,10.9221,2.8445,5.5347,2.4024,13.1147,5.6925,29.1,6.7823.09.0069.1795.0091.2692.01h.0074c15.341-.0009,23.1446-3.56,29.4146-6.42,4.093-1.8675,7.05-3.2165,11.2377-3.2165,4.3678,0,6.9748,1.1314,10.9221,2.8445,5.5347,2.4024,13.1147,5.6925,29.1,6.7823.0919.0069.1838.01.2757.01a3.9949,3.9949,0,0,0,.267-7.98Z"/><path class="cls-1" d="M982.898,9.8126c-14.61-.9961-21.181-3.8485-26.4608-6.1408C952.2835,1.8694,948.36.1667,942.3333.1667c-5.9231,0-10.1149,1.9125-14.5538,3.9369-5.8373,2.6625-12.4566,5.6782-25.9762,5.6977-14.5062-1.0053-21.0548-3.845-26.3169-6.1295C871.3327,1.8694,867.41.1667,861.3825.1667c-5.9231,0-10.1149,1.9125-14.5538,3.9369-5.8373,2.6625-12.4566,5.6782-25.9762,5.6977-14.5062-1.0053-21.0548-3.845-26.3169-6.1295C790.382,1.8694,786.4589.1667,780.4317.1667c-5.9231,0-10.1149,1.9125-14.5538,3.9369-5.8564,2.6711-12.4956,5.6995-26.1036,5.6995a3.995,3.995,0,0,0,0,7.99c15.3445,0,23.149-3.56,29.42-6.42,4.093-1.8675,7.05-3.2165,11.2377-3.2165,4.3678,0,6.9748,1.1314,10.9221,2.8445,5.5347,2.4024,13.1147,5.6925,29.1,6.7823.09.0069.1795.0091.2692.01h.0074c15.341-.0009,23.1446-3.56,29.4146-6.42,4.093-1.8675,7.05-3.2165,11.2377-3.2165,4.3678,0,6.9748,1.1314,10.9221,2.8445,5.5347,2.4024,13.1147,5.6925,29.1,6.7823.09.0069.1795.0091.2692.01h.0074c15.341-.0009,23.1446-3.56,29.4146-6.42,4.093-1.8675,7.05-3.2165,11.2377-3.2165,4.3678,0,6.9748,1.1314,10.9221,2.8445,5.5347,2.4024,13.1147,5.6925,29.1,6.7823.0919.0069.1838.01.2757.01a3.9949,3.9949,0,0,0,.267-7.98Z"/><path class="cls-1" d="M247.4972,39.3327c-14.61-.9961-21.181-3.8485-26.4608-6.1408-4.1537-1.8024-8.0767-3.5052-14.1039-3.5052-5.9231,0-10.1149,1.9125-14.5538,3.9369-5.8373,2.6625-12.4566,5.6782-25.9762,5.6977-14.5062-1.0053-21.0548-3.845-26.3169-6.1295-4.1537-1.8024-8.0767-3.5052-14.1039-3.5052-5.9231,0-10.1149,1.9125-14.5538,3.9369-5.8373,2.6625-12.4566,5.6782-25.9762,5.6977-14.5062-1.0053-21.0548-3.845-26.3169-6.1295-4.1537-1.8024-8.0767-3.5052-14.1039-3.5052-5.9231,0-10.1149,1.9125-14.5538,3.9369-5.8564,2.6711-12.4956,5.6995-26.1036,5.6995a3.995,3.995,0,0,0,0,7.99c15.3445,0,23.149-3.56,29.42-6.42,4.093-1.8675,7.05-3.2165,11.2377-3.2165,4.3678,0,6.9748,1.1314,10.9221,2.8445,5.5347,2.4024,13.1147,5.6925,29.1,6.7823.09.0069.1795.0091.2692.01h.0074c15.341-.0009,23.1446-3.56,29.4146-6.42,4.093-1.8675,7.05-3.2165,11.2377-3.2165,4.3678,0,6.9748,1.1314,10.9221,2.8445,5.5347,2.4024,13.1147,5.6925,29.1,6.7823.09.0069.1795.0091.2692.01h.0074c15.341-.0009,23.1446-3.56,29.4146-6.42,4.093-1.8675,7.05-3.2165,11.2377-3.2165,4.3678,0,6.9748,1.1314,10.9221,2.8445,5.5347,2.4024,13.1147,5.6925,29.1,6.7823.0919.0069.1838.01.2757.01a3.9949,3.9949,0,0,0,.267-7.98Z"/><path class="cls-1" d="M492.6308,39.3327c-14.61-.9961-21.181-3.8485-26.4608-6.1408-4.1537-1.8024-8.0767-3.5052-14.1039-3.5052-5.9231,0-10.1149,1.9125-14.5538,3.9369-5.8373,2.6625-12.4566,5.6782-25.9762,5.6977-14.5062-1.0053-21.0548-3.845-26.3169-6.1295-4.1537-1.8024-8.0767-3.5052-14.1039-3.5052-5.9231,0-10.1149,1.9125-14.5538,3.9369-5.8373,2.6625-12.4566,5.6782-25.9762,5.6977-14.5062-1.0053-21.0548-3.845-26.3169-6.1295-4.1537-1.8024-8.0767-3.5052-14.1039-3.5052-5.9231,0-10.1149,1.9125-14.5538,3.9369-5.8564,2.6711-12.4956,5.6995-26.1036,5.6995a3.995,3.995,0,0,0,0,7.99c15.3445,0,23.149-3.56,29.42-6.42,4.093-1.8675,7.05-3.2165,11.2377-3.2165,4.3678,0,6.9748,1.1314,10.9221,2.8445,5.5347,2.4024,13.1147,5.6925,29.1,6.7823.09.0069.1795.0091.2692.01h.0074c15.341-.0009,23.1446-3.56,29.4146-6.42,4.093-1.8675,7.05-3.2165,11.2377-3.2165,4.3678,0,6.9748,1.1314,10.9221,2.8445,5.5347,2.4024,13.1147,5.6925,29.1,6.7823.09.0069.1795.0091.2692.01h.0074c15.341-.0009,23.1446-3.56,29.4146-6.42,4.093-1.8675,7.05-3.2165,11.2377-3.2165,4.3678,0,6.9748,1.1314,10.9221,2.8445,5.5347,2.4024,13.1147,5.6925,29.1,6.7823.0919.0069.1838.01.2757.01a3.9949,3.9949,0,0,0,.267-7.98Z"/><path class="cls-1" d="M737.7644,39.3327c-14.61-.9961-21.181-3.8485-26.4608-6.1408C707.15,31.39,703.2269,29.6868,697.2,29.6868c-5.9231,0-10.1149,1.9125-14.5538,3.9369-5.8373,2.6625-12.4566,5.6782-25.9762,5.6977-14.5062-1.0053-21.0548-3.845-26.3169-6.1295-4.1537-1.8024-8.0767-3.5052-14.1039-3.5052-5.9231,0-10.1149,1.9125-14.5538,3.9369-5.8373,2.6625-12.4566,5.6782-25.9762,5.6977-14.5062-1.0053-21.0548-3.845-26.3169-6.1295-4.1537-1.8024-8.0767-3.5052-14.1039-3.5052-5.9231,0-10.1149,1.9125-14.5538,3.9369-5.8564,2.6711-12.4956,5.6995-26.1036,5.6995a3.995,3.995,0,0,0,0,7.99c15.3445,0,23.149-3.56,29.42-6.42,4.093-1.8675,7.05-3.2165,11.2377-3.2165,4.3678,0,6.9748,1.1314,10.9221,2.8445,5.5347,2.4024,13.1147,5.6925,29.1,6.7823.09.0069.1795.0091.2692.01h.0074c15.341-.0009,23.1446-3.56,29.4146-6.42,4.093-1.8675,7.05-3.2165,11.2377-3.2165,4.3678,0,6.9748,1.1314,10.9221,2.8445,5.5347,2.4024,13.1147,5.6925,29.1,6.7823.09.0069.1795.0091.2692.01h.0074c15.341-.0009,23.1446-3.56,29.4146-6.42,4.093-1.8675,7.05-3.2165,11.2377-3.2165,4.3678,0,6.9748,1.1314,10.9221,2.8445,5.5347,2.4024,13.1147,5.6925,29.1,6.7823.0919.0069.1838.01.2757.01a3.9949,3.9949,0,0,0,.267-7.98Z"/><path class="cls-1" d="M982.898,39.3327c-14.61-.9961-21.181-3.8485-26.4608-6.1408-4.1537-1.8024-8.0767-3.5052-14.1039-3.5052-5.9231,0-10.1149,1.9125-14.5538,3.9369-5.8373,2.6625-12.4566,5.6782-25.9762,5.6977-14.5062-1.0053-21.0548-3.845-26.3169-6.1295-4.1537-1.8024-8.0767-3.5052-14.1039-3.5052-5.9231,0-10.1149,1.9125-14.5538,3.9369-5.8373,2.6625-12.4566,5.6782-25.9762,5.6977-14.5062-1.0053-21.0548-3.845-26.3169-6.1295-4.1537-1.8024-8.0767-3.5052-14.1039-3.5052-5.9231,0-10.1149,1.9125-14.5538,3.9369-5.8564,2.6711-12.4956,5.6995-26.1036,5.6995a3.995,3.995,0,0,0,0,7.99c15.3445,0,23.149-3.56,29.42-6.42,4.093-1.8675,7.05-3.2165,11.2377-3.2165,4.3678,0,6.9748,1.1314,10.9221,2.8445,5.5347,2.4024,13.1147,5.6925,29.1,6.7823.09.0069.1795.0091.2692.01h.0074c15.341-.0009,23.1446-3.56,29.4146-6.42,4.093-1.8675,7.05-3.2165,11.2377-3.2165,4.3678,0,6.9748,1.1314,10.9221,2.8445,5.5347,2.4024,13.1147,5.6925,29.1,6.7823.09.0069.1795.0091.2692.01h.0074c15.341-.0009,23.1446-3.56,29.4146-6.42,4.093-1.8675,7.05-3.2165,11.2377-3.2165,4.3678,0,6.9748,1.1314,10.9221,2.8445,5.5347,2.4024,13.1147,5.6925,29.1,6.7823.0919.0069.1838.01.2757.01a3.9949,3.9949,0,0,0,.267-7.98Z"/><path class="cls-1" d="M247.4972,68.8528c-14.61-.9961-21.181-3.8485-26.4608-6.1408-4.1537-1.8024-8.0767-3.5052-14.1039-3.5052-5.9231,0-10.1149,1.9125-14.5538,3.9369-5.8373,2.6625-12.4566,5.6782-25.9762,5.6977-14.5062-1.0053-21.0548-3.845-26.3169-6.1295-4.1537-1.8024-8.0767-3.5052-14.1039-3.5052-5.9231,0-10.1149,1.9125-14.5538,3.9369-5.8373,2.6625-12.4566,5.6782-25.9762,5.6977-14.5062-1.0053-21.0548-3.845-26.3169-6.1295-4.1537-1.8024-8.0767-3.5052-14.1039-3.5052-5.9231,0-10.1149,1.9125-14.5538,3.9369-5.8564,2.6711-12.4956,5.6995-26.1036,5.6995a3.995,3.995,0,1,0,0,7.99c15.3445,0,23.149-3.56,29.42-6.42,4.093-1.8675,7.05-3.2165,11.2377-3.2165,4.3678,0,6.9748,1.1314,10.9221,2.8445,5.5347,2.4024,13.1147,5.6925,29.1,6.7823.09.0069.1795.0091.2692.01h.0074c15.341-.0009,23.1446-3.56,29.4146-6.42,4.093-1.8675,7.05-3.2165,11.2377-3.2165,4.3678,0,6.9748,1.1314,10.9221,2.8445,5.5347,2.4024,13.1147,5.6925,29.1,6.7823.09.0069.1795.0091.2692.01h.0074c15.341-.0009,23.1446-3.56,29.4146-6.42,4.093-1.8675,7.05-3.2165,11.2377-3.2165,4.3678,0,6.9748,1.1314,10.9221,2.8445,5.5347,2.4024,13.1147,5.6925,29.1,6.7823.0919.0069.1838.01.2757.01a3.9949,3.9949,0,0,0,.267-7.98Z"/><path class="cls-1" d="M492.6308,68.8528c-14.61-.9961-21.181-3.8485-26.4608-6.1408-4.1537-1.8024-8.0767-3.5052-14.1039-3.5052-5.9231,0-10.1149,1.9125-14.5538,3.9369-5.8373,2.6625-12.4566,5.6782-25.9762,5.6977-14.5062-1.0053-21.0548-3.845-26.3169-6.1295-4.1537-1.8024-8.0767-3.5052-14.1039-3.5052-5.9231,0-10.1149,1.9125-14.5538,3.9369-5.8373,2.6625-12.4566,5.6782-25.9762,5.6977-14.5062-1.0053-21.0548-3.845-26.3169-6.1295-4.1537-1.8024-8.0767-3.5052-14.1039-3.5052-5.9231,0-10.1149,1.9125-14.5538,3.9369-5.8564,2.6711-12.4956,5.6995-26.1036,5.6995a3.995,3.995,0,0,0,0,7.99c15.3445,0,23.149-3.56,29.42-6.42,4.093-1.8675,7.05-3.2165,11.2377-3.2165,4.3678,0,6.9748,1.1314,10.9221,2.8445,5.5347,2.4024,13.1147,5.6925,29.1,6.7823.09.0069.1795.0091.2692.01h.0074c15.341-.0009,23.1446-3.56,29.4146-6.42,4.093-1.8675,7.05-3.2165,11.2377-3.2165,4.3678,0,6.9748,1.1314,10.9221,2.8445,5.5347,2.4024,13.1147,5.6925,29.1,6.7823.09.0069.1795.0091.2692.01h.0074c15.341-.0009,23.1446-3.56,29.4146-6.42,4.093-1.8675,7.05-3.2165,11.2377-3.2165,4.3678,0,6.9748,1.1314,10.9221,2.8445,5.5347,2.4024,13.1147,5.6925,29.1,6.7823.0919.0069.1838.01.2757.01a3.9949,3.9949,0,0,0,.267-7.98Z"/><path class="cls-1" d="M737.7644,68.8528c-14.61-.9961-21.181-3.8485-26.4608-6.1408C707.15,60.91,703.2269,59.2069,697.2,59.2069c-5.9231,0-10.1149,1.9125-14.5538,3.9369-5.8373,2.6625-12.4566,5.6782-25.9762,5.6977-14.5062-1.0053-21.0548-3.845-26.3169-6.1295-4.1537-1.8024-8.0767-3.5052-14.1039-3.5052-5.9231,0-10.1149,1.9125-14.5538,3.9369-5.8373,2.6625-12.4566,5.6782-25.9762,5.6977-14.5062-1.0053-21.0548-3.845-26.3169-6.1295-4.1537-1.8024-8.0767-3.5052-14.1039-3.5052-5.9231,0-10.1149,1.9125-14.5538,3.9369-5.8564,2.6711-12.4956,5.6995-26.1036,5.6995a3.995,3.995,0,0,0,0,7.99c15.3445,0,23.149-3.56,29.42-6.42,4.093-1.8675,7.05-3.2165,11.2377-3.2165,4.3678,0,6.9748,1.1314,10.9221,2.8445,5.5347,2.4024,13.1147,5.6925,29.1,6.7823.09.0069.1795.0091.2692.01h.0074c15.341-.0009,23.1446-3.56,29.4146-6.42,4.093-1.8675,7.05-3.2165,11.2377-3.2165,4.3678,0,6.9748,1.1314,10.9221,2.8445,5.5347,2.4024,13.1147,5.6925,29.1,6.7823.09.0069.1795.0091.2692.01h.0074c15.341-.0009,23.1446-3.56,29.4146-6.42,4.093-1.8675,7.05-3.2165,11.2377-3.2165,4.3678,0,6.9748,1.1314,10.9221,2.8445,5.5347,2.4024,13.1147,5.6925,29.1,6.7823.0919.0069.1838.01.2757.01a3.9949,3.9949,0,0,0,.267-7.98Z"/><path class="cls-1" d="M982.898,68.8528c-14.61-.9961-21.181-3.8485-26.4608-6.1408-4.1537-1.8024-8.0767-3.5052-14.1039-3.5052-5.9231,0-10.1149,1.9125-14.5538,3.9369-5.8373,2.6625-12.4566,5.6782-25.9762,5.6977-14.5062-1.0053-21.0548-3.845-26.3169-6.1295-4.1537-1.8024-8.0767-3.5052-14.1039-3.5052-5.9231,0-10.1149,1.9125-14.5538,3.9369-5.8373,2.6625-12.4566,5.6782-25.9762,5.6977-14.5062-1.0053-21.0548-3.845-26.3169-6.1295-4.1537-1.8024-8.0767-3.5052-14.1039-3.5052-5.9231,0-10.1149,1.9125-14.5538,3.9369-5.8564,2.6711-12.4956,5.6995-26.1036,5.6995a3.995,3.995,0,0,0,0,7.99c15.3445,0,23.149-3.56,29.42-6.42,4.093-1.8675,7.05-3.2165,11.2377-3.2165,4.3678,0,6.9748,1.1314,10.9221,2.8445,5.5347,2.4024,13.1147,5.6925,29.1,6.7823.09.0069.1795.0091.2692.01h.0074c15.341-.0009,23.1446-3.56,29.4146-6.42,4.093-1.8675,7.05-3.2165,11.2377-3.2165,4.3678,0,6.9748,1.1314,10.9221,2.8445,5.5347,2.4024,13.1147,5.6925,29.1,6.7823.09.0069.1795.0091.2692.01h.0074c15.341-.0009,23.1446-3.56,29.4146-6.42,4.093-1.8675,7.05-3.2165,11.2377-3.2165,4.3678,0,6.9748,1.1314,10.9221,2.8445,5.5347,2.4024,13.1147,5.6925,29.1,6.7823.0919.0069.1838.01.2757.01a3.9949,3.9949,0,0,0,.267-7.98Z"/></svg>