<svg id="Capa_1" data-name="Capa 1" xmlns="http://www.w3.org/2000/svg" width="111.4019" height="111.4019" viewBox="0 0 111.4019 111.4019"><defs><style>.cls-1{fill:#fff;}</style></defs><title>TIL_Logos Web</title><path class="cls-1" d="M6.8531,73.1543V52.3765H9.83V70.1777h5.8949v2.9766Z"/><path class="cls-1" d="M23.3116,57.2792a5.3076,5.3076,0,0,1,.4378-2.2179,4.6841,4.6841,0,0,1,1.1671-1.605,4.9371,4.9371,0,0,1,1.5905-.9338,5.2974,5.2974,0,0,1,5.209.9338,4.89,4.89,0,0,1,1.1381,1.605,5.311,5.311,0,0,1,.4376,2.2179V68.2516a5.261,5.261,0,0,1-.4376,2.247,4.635,4.635,0,0,1-1.1381,1.5467,5.0051,5.0051,0,0,1-1.62.9631,5.1778,5.1778,0,0,1-3.5894,0,4.678,4.678,0,0,1-1.5905-.9631,4.4491,4.4491,0,0,1-1.1671-1.5467,5.2576,5.2576,0,0,1-.4378-2.247Zm2.9765,10.9724a1.9774,1.9774,0,0,0,.5983,1.59,2.2163,2.2163,0,0,0,2.8306,0,1.9788,1.9788,0,0,0,.5983-1.59V57.2792a1.98,1.98,0,0,0-.5983-1.59,2.2163,2.2163,0,0,0-2.8306,0,1.9789,1.9789,0,0,0-.5983,1.59Z"/><path class="cls-1" d="M41.7547,73.1543V52.3765H46.54q5.2528,0,5.2529,6.0991a7.6875,7.6875,0,0,1-.569,3.1226A4.4139,4.4139,0,0,1,49.2252,63.67l3.21,9.4842H49.2835l-2.7723-8.8714h-1.78v8.8714ZM44.7311,55.178v6.4785h1.6925a2.9962,2.9962,0,0,0,1.2549-.2188,1.7056,1.7056,0,0,0,.73-.6275,2.8522,2.8522,0,0,0,.321-1.0068,11.0155,11.0155,0,0,0,0-2.7723,2.7746,2.7746,0,0,0-.35-1.036,2.3687,2.3687,0,0,0-2.1011-.8171Z"/><path class="cls-1" d="M60.0226,73.1543V52.3765h8.8714V55.178H62.999v6.0992h5.1361v2.8015H62.999v6.0991h5.8949v2.9766Z"/><path class="cls-1" d="M78.6114,73.1543V55.178H75.1679V52.3765h9.8636V55.178H81.5879V73.1543Z"/><path class="cls-1" d="M91.6557,57.2792a5.3076,5.3076,0,0,1,.4378-2.2179,4.6841,4.6841,0,0,1,1.1671-1.605,4.9371,4.9371,0,0,1,1.5905-.9338,5.2974,5.2974,0,0,1,5.209.9338,4.89,4.89,0,0,1,1.1381,1.605,5.311,5.311,0,0,1,.4376,2.2179V68.2516a5.261,5.261,0,0,1-.4376,2.247,4.635,4.635,0,0,1-1.1381,1.5467,5.0052,5.0052,0,0,1-1.62.9631,5.1778,5.1778,0,0,1-3.5894,0,4.678,4.678,0,0,1-1.5905-.9631,4.4491,4.4491,0,0,1-1.1671-1.5467,5.2576,5.2576,0,0,1-.4378-2.247Zm2.9765,10.9724a1.9774,1.9774,0,0,0,.5983,1.59,2.2163,2.2163,0,0,0,2.8306,0,1.9788,1.9788,0,0,0,.5983-1.59V57.2792a1.98,1.98,0,0,0-.5983-1.59,2.2163,2.2163,0,0,0-2.8306,0,1.9789,1.9789,0,0,0-.5983,1.59Z"/><path class="cls-1" d="M29.0925,81.3887l.46,1.2237.4459-1.2237H29.79V81.164h.6872v.2247h-.2151l-.595,1.5953h-.25l-.6046-1.5953h-.2223V81.164h.71v.2247Z"/><path class="cls-1" d="M33.2562,81.3815l.4876,1.3586h.2007v.2247h-.71V82.74H33.47l-.14-.4086h-.6536l-.14.4086h.2282v.2247h-.7145V82.74h.2175l.485-1.3586H32.537V81.164h.9357v.2175Zm-.2461,0h-.0085l-.2544.7385h.5114Z"/><path class="cls-1" d="M37.1931,81.3625V81.164h.2295v.5771h-.2341a.6711.6711,0,0,0-.2426-.27.6231.6231,0,0,0-.3382-.097.5582.5582,0,0,0-.3179.0939.6406.6406,0,0,0-.2179.2509.7469.7469,0,0,0-.0784.3376.7354.7354,0,0,0,.0819.3441.659.659,0,0,0,.2253.2522.5672.5672,0,0,0,.319.0943.5962.5962,0,0,0,.3824-.1321.7522.7522,0,0,0,.2426-.3745l.2293.1218a.86.86,0,0,1-.3291.4666.9409.9409,0,0,1-.554.1655.8632.8632,0,0,1-.7809-.4607.9667.9667,0,0,1-.1129-.4629,1.011,1.011,0,0,1,.1153-.4876.8276.8276,0,0,1,.3186-.3315.908.908,0,0,1,.4647-.1177.8716.8716,0,0,1,.3238.0585A.9133.9133,0,0,1,37.1931,81.3625Z"/><path class="cls-1" d="M40.4775,81.3815l.4876,1.3586h.2007v.2247h-.71V82.74h.2354l-.14-.4086h-.6536l-.14.4086h.2282v.2247h-.7145V82.74h.2175l.485-1.3586h-.2162V81.164h.9357v.2175Zm-.2461,0h-.0085l-.2544.7385H40.48Z"/><path class="cls-1" d="M44.0389,81.8226v-.4339h-.3714V82.74h.2341v.2247h-.7361V82.74h.2295V81.3887h-.3692v.4339h-.2223V81.164h1.4578v.6586Z"/><path class="cls-1" d="M46.5994,81.3887V82.74h.1959v.2247h-.6632V82.74h.1948V81.3887h-.1948V81.164h.6632v.2247Z"/><path class="cls-1" d="M50.5732,82.0591a.9739.9739,0,0,1-.1212.4887.84.84,0,0,1-.3352.33.9991.9991,0,0,1-.4863.1166.9334.9334,0,0,1-.478-.1214.8461.8461,0,0,1-.3256-.3356.9958.9958,0,0,1-.1166-.4835.9458.9458,0,0,1,.119-.4756.85.85,0,0,1,.328-.3267.9507.9507,0,0,1,.4756-.1177.9789.9789,0,0,1,.4911.1212.8545.8545,0,0,1,.3315.3315A.9491.9491,0,0,1,50.5732,82.0591Zm-.932.6955a.5859.5859,0,0,0,.331-.0967.6482.6482,0,0,0,.2251-.257.7571.7571,0,0,0,.0795-.3417.7179.7179,0,0,0-.0843-.3435.6406.6406,0,0,0-.2323-.25.6242.6242,0,0,0-.3345-.0915.5846.5846,0,0,0-.542.3347.7768.7768,0,0,0-.0771.3476.82.82,0,0,0,.0771.362.5808.5808,0,0,0,.2216.2474A.6309.6309,0,0,0,49.6412,82.7545Z"/><path class="cls-1" d="M53.8672,81.3887H53.61V81.164h.7385v.2247h-.264V82.984h-.28l-.8638-1.5392V82.74h.2581v.2247h-.7374V82.74h.257V81.3887h-.257V81.164h.6143l.7911,1.3993Z"/><path class="cls-1" d="M59.8062,81.69v-.3011h-.7706v.5365h.67V82.15h-.67v.59h.7706v-.3286h.2223v.5533H58.5314V82.74h.2317V81.3887h-.2317V81.164h1.4971V81.69Z"/><path class="cls-1" d="M62.4119,81.3887l.3166.4721.3131-.4721h-.2079V81.164h.6918v.2247h-.2247l-.4457.6608.4852.6907h.2319v.2247h-.7385V82.74h.21l-.3334-.4922-.33.4922h.22v.2247h-.7171V82.74h.2378l.4625-.6835-.46-.668h-.2306V81.164h.7241v.2247Z"/><path class="cls-1" d="M66.7848,81.72a.5419.5419,0,0,1-.1518.3992.7137.7137,0,0,1-.5138.1553h-.2365v.466h.2341v.2247h-.7313V82.74H65.61V81.3887h-.2247V81.164h.67a1.2894,1.2894,0,0,1,.4308.0585.4174.4174,0,0,1,.2288.1788A.6328.6328,0,0,1,66.7848,81.72Zm-.276-.0059a.2948.2948,0,0,0-.0991-.2467.5594.5594,0,0,0-.3393-.0784h-.1876v.668h.1684a.9325.9325,0,0,0,.2653-.03.25.25,0,0,0,.1459-.1053A.3916.3916,0,0,0,66.5088,81.7138Z"/><path class="cls-1" d="M69.8792,81.69v-.3011h-.7706v.5365h.67V82.15h-.67v.59h.7706v-.3286h.2223v.5533H68.6044V82.74h.2317V81.3887h-.2317V81.164h1.4971V81.69Z"/><path class="cls-1" d="M73.3345,81.6361a.4393.4393,0,0,1-.098.2909.5029.5029,0,0,1-.2736.162l.3179.6512h.22v.2247h-.4038l-.3979-.8389h-.2522V82.74h.2295v.2247H71.93V82.74h.2437V81.3887H71.93V81.164h.7479a.8626.8626,0,0,1,.502.1135A.4161.4161,0,0,1,73.3345,81.6361Zm-.2808-.0048a.2147.2147,0,0,0-.0788-.1841.4241.4241,0,0,0-.25-.0585h-.2784V81.9h.2616a.4487.4487,0,0,0,.2605-.0609A.2386.2386,0,0,0,73.0537,81.6313Z"/><path class="cls-1" d="M76.5578,81.8226v-.4339h-.3714V82.74H76.42v.2247h-.7361V82.74h.2295V81.3887h-.3692v.4339h-.2223V81.164H76.78v.6586Z"/><path class="cls-1" d="M79.5877,81.2764v-.1232h.22v.5461h-.22v-.1242a.4361.4361,0,0,0-.3824-.21.3705.3705,0,0,0-.2269.06.203.203,0,0,0-.079.1721.192.192,0,0,0,.0747.1638.6671.6671,0,0,0,.2288.0956l.2116.0561a.8242.8242,0,0,1,.31.1422.4216.4216,0,0,1,.1411.1876.7035.7035,0,0,1,.0328.2212.5064.5064,0,0,1-.1529.3882.575.575,0,0,1-.41.1435.6539.6539,0,0,1-.4457-.1793v.1494h-.2247v-.656H78.89v.159a.4776.4776,0,0,0,.4206.2963.3317.3317,0,0,0,.2354-.0784.2872.2872,0,0,0,.0836-.22q0-.1936-.2725-.269l-.2247-.0633a.8039.8039,0,0,1-.3583-.1876.4262.4262,0,0,1-.1159-.3118.4786.4786,0,0,1,.14-.3686.5464.5464,0,0,1,.3878-.1308A.6492.6492,0,0,1,79.5877,81.2764Z"/><path class="cls-1" d="M91.6856,77.644a43.4271,43.4271,0,0,1-74.8377.2675,3.836,3.836,0,0,0-1.1488.2595,44.554,44.554,0,0,0,77.0522-.1256A1.296,1.296,0,0,0,91.6856,77.644Z"/><path class="cls-1" d="M97.8186,50.708a.5593.5593,0,0,1-.554-.4887,43.43,43.43,0,0,0-86.0418-.8008.559.559,0,1,1-1.1062-.1614,44.5476,44.5476,0,0,1,88.2573.8214.56.56,0,0,1-.5553.63Z"/><polygon class="cls-1" points="53.78 76.316 54.265 75.377 54.715 76.333 55.758 76.504 54.988 77.228 55.147 78.272 54.221 77.763 53.277 78.238 53.474 77.2 52.731 76.448 53.78 76.316"/><path class="cls-1" d="M39.2616,48.4991l-.022,0a.2726.2726,0,0,1-.2607-.2911l.0945-4.7244q-.0186-.243-.0258-.4863A3.73,3.73,0,0,0,39,42.51q-.0946-1.0614-.2745-2.2677a18.3162,18.3162,0,0,0-.5371-2.4264,15.4263,15.4263,0,0,0-.9024-2.3546,9.0873,9.0873,0,0,0-1.3489-2.0524,6.8009,6.8009,0,0,0-5.1984-2.31.2643.2643,0,0,1-.2834-.2473.1859.1859,0,0,1,.0139-.1874.2551.2551,0,0,1,.1671-.0968q.0217,0,.7093-.1659t1.8172-.4138q1.13-.2478,2.559-.5462t2.9346-.5623a49.6549,49.6549,0,0,1,5.7967-.7064,8.6014,8.6014,0,0,1,2.3062.1016,1.5877,1.5877,0,0,1,1.0834.6349.9771.9771,0,0,1,.0085.8834,2.489,2.489,0,0,1-.3054.4812,4.4828,4.4828,0,0,1-.5049.5223.227.227,0,0,1-.3754-.0057.2486.2486,0,0,1,.0061-.3975q.9183-.8472.7033-1.2259a.6525.6525,0,0,0-.1742-.1572,1.3564,1.3564,0,0,0-.4391-.1613,6.0773,6.0773,0,0,0-.8594-.1125,13.198,13.198,0,0,0-1.4134-.0106,41.2056,41.2056,0,0,0-4.6013.5258l0,.0221-.2618,14.2178q.0512.9945.0377,1.8666T39.6177,46.87q-.0322.64-.0876,1.39a.2217.2217,0,0,1-.08.1755A.2789.2789,0,0,1,39.2616,48.4991ZM32.3563,30.7266A7.11,7.11,0,0,1,36.34,33.0622a11.4655,11.4655,0,0,1,2.3169,4.4522q.1474.4442.2617.9315t.2167.9971l.1987-10.1113a1.1285,1.1285,0,0,1-.2767.0511,1.1592,1.1592,0,0,0-.2767.0509q-1.86.3251-3.5659.6853T32.3563,30.7266Z"/><path class="cls-1" d="M44.186,48.4861a.4625.4625,0,0,1-.4254-.3378,4.4561,4.4561,0,0,1-.24-.9091,9.4864,9.4864,0,0,1-.1591-1.1618q-.0557-.6748-.1092-1.5143-.0858-1.6354-.0765-3.6671t.0854-4.1283q.0714-1.8094.1842-3.387t.2626-2.7233q.0758-.639.172-1.1347a6.8819,6.8819,0,0,1,.2116-.8469,4.3344,4.3344,0,0,1,.2745-.6252.4957.4957,0,0,1,.4683-.2911.432.432,0,0,1,.1649.0467.6243.6243,0,0,1,.2069.18,2.87,2.87,0,0,1,.3747,1.4964,17.7929,17.7929,0,0,1-.0624,2.638,30.4648,30.4648,0,0,1-.4717,3.4046,32.1309,32.1309,0,0,1-1.3315,4.7608q.0156.3977.01.7951t.01.7731q.0248,1.2591.0637,2.3307t.115,1.8678a1.2126,1.2126,0,0,1,.04.2657q.0108-.707.0562-1.5119t.1021-1.6215q.2688-3.1537,1.054-3.9369a.9211.9211,0,0,1,.6444-.2551.8824.8824,0,0,1,.5925.2409,2.4488,2.4488,0,0,1,.4765.6146,6.494,6.494,0,0,1,.4061.8785q.1912.5.3817,1.0327.17.4446.3287.8883a6.4447,6.4447,0,0,0,.33.778q.3215.6453.6085.65a1.12,1.12,0,0,0,.2781-.1393,2.2627,2.2627,0,0,0,.5054-.5553,5.3044,5.3044,0,0,0,.3855-.6677q.2274-.4488.4683-1.0086t.4925-1.1518q.2517-.5925.4357-1.0534a.2793.2793,0,1,1,.5271.1847q-.2063.5051-.4584,1.0972t-.5038,1.1738q-.2522.5815-.502,1.0523a6.37,6.37,0,0,1-.4081.6894,2.5271,2.5271,0,0,1-.6289.697,1.2166,1.2166,0,0,1-.622.2334.8269.8269,0,0,1-.5707-.23,2.4,2.4,0,0,1-.4435-.592,6.101,6.101,0,0,1-.3844-.8561q-.18-.4883-.349-.9991-.17-.4664-.3394-.9216t-.3409-.8113q-.3872-.6683-.6962-.6732a.52.52,0,0,0-.1.0095.2339.2339,0,0,0-.1228.0976,1.4859,1.4859,0,0,0-.2369.3276,2.9355,2.9355,0,0,0-.2417.6367q-.1172.418-.2257,1.0456t-.1894,1.5539q-.0542.6172-.0964,1.2463t-.0628,1.2136q-.02.5845-.0277,1.0927l-.0132.8611a2.73,2.73,0,0,1,.017.3315l-.0041.265a.2757.2757,0,0,1-.0913.1974A.27.27,0,0,1,44.186,48.4861Zm.6169-20.1087q-.0461.0879-.1373.3071a3.9917,3.9917,0,0,0-.1871.6817,21.8978,21.8978,0,0,0-.371,2.6q-.1314,1.3453-.2225,3t-.1186,3.4212a34.41,34.41,0,0,0,.8747-3.7629q.2675-1.63.3514-2.7551.0552-.75.0545-1.4015t-.0375-1.16q-.06-.3985-.112-.609A3.0445,3.0445,0,0,0,44.8029,28.3774Z"/><path class="cls-1" d="M53.0212,45.4634a.997.997,0,0,1-.7239-.32,1.4227,1.4227,0,0,1-.3436-.6456,5.6978,5.6978,0,0,1-.1519-.8968,9.4741,9.4741,0,0,1-.039-1.05l.0166-1.0818q.0257-.2647.03-.53l.0071-.4636a2.9011,2.9011,0,0,1-.0175-.2985.3393.3393,0,0,0-.02-.1438.2767.2767,0,0,1-.1286-.2449q-.04-.2874.203-.284a.4012.4012,0,0,1,.2851.1368,1.0136,1.0136,0,0,1,.2112.6216,9.0989,9.0989,0,0,1-.02,1.2805l-.0138.9052q-.0074.4859.0187.95a5.3262,5.3262,0,0,0,.1085.8408,1.1356,1.1356,0,0,0,.2567.5561.3609.3609,0,0,0,.2632.1144.8885.8885,0,0,0,.51-.1578,1.98,1.98,0,0,0,.4479-.4127,3.6692,3.6692,0,0,0,.3732-.5685q.17-.3172.3075-.6247.16-.3506.4564-.9536t.5925-1.1945q.2957-.5918.7294-1.4906.0481-.2642.3119-.1719a.3131.3131,0,0,1,.1857.1243.2009.2009,0,0,1,.03.21q0,.0222-.2279.4714t-.513,1.0521q-.2855.6033-.582,1.2278t-.4565.9758Q54.2572,45.4821,53.0212,45.4634Zm-.8526-8.5042a.7169.7169,0,0,1,.1851.1685,1.0719,1.0719,0,0,1,.1058.3,1.6883,1.6883,0,0,1,.0384.3871,2.02,2.02,0,0,1-.039.3748,1.0525,1.0525,0,0,1-.0813.2637.3322.3322,0,0,1-.1783.1077c-.0888.0283-.1476.02-.1763-.0248-.044-.0007-.0878-.0344-.1308-.1013a1.1519,1.1519,0,0,1-.1073-.2114,1.8741,1.8741,0,0,1,.0382-.32,1.231,1.231,0,0,0-.0047-.4307.6562.6562,0,0,1,.0266-.2867,1.3335,1.3335,0,0,0,.0288-.4413Q52.0481,36.88,52.1686,36.9591Z"/><path class="cls-1" d="M58.3324,44.7054a.9228.9228,0,0,1-.582-.2076,1.0916,1.0916,0,0,1-.3558-.5576,2.4815,2.4815,0,0,1,.4716-1.9582,2.0293,2.0293,0,0,0,.1693-.24,1.1925,1.1925,0,0,1,.1913-.24,5.1528,5.1528,0,0,0-.52-.6594,7.8835,7.8835,0,0,0-.5658-.55q-.3916-.3812-.6737-.706a.978.978,0,0,1-.2772-.6557.7193.7193,0,0,1,.2506-.5041.9424.9424,0,0,1,1.0188-.1832,1.43,1.43,0,0,1,.59.4287,1.1846,1.1846,0,0,1,.2778.6q.04.2656-.2476.3053-.2656.04-.3052-.2475a.57.57,0,0,0-.1718-.3339.8958.8958,0,0,0-.35-.2263.6094.6094,0,0,0-.3085-.0489.1418.1418,0,0,0-.1347.1526.7962.7962,0,0,0,.1488.3777,3.7986,3.7986,0,0,0,.5643.649q.2612.2473.5547.5385a4.1713,4.1713,0,0,1,.5312.6486q.3811-.3694.8962-.8366a7.3775,7.3775,0,0,1,1.0725-.8117.2748.2748,0,0,1,.3739.094.2547.2547,0,0,1-.0944.3961,6.3051,6.3051,0,0,0-1.0721.79q-.5154.4673-.874.8369a3.0126,3.0126,0,0,1,.2348.5336,3.0612,3.0612,0,0,1,.2017,1.24,1.8052,1.8052,0,0,1-.3021.9891A.8129.8129,0,0,1,58.3324,44.7054Zm.1958-2.6912c-.03.0437-.0642.0873-.1013.1309a.7991.7991,0,0,0-.1017.1531,1.8874,1.8874,0,0,0-.3984,1.4957,1.087,1.087,0,0,0,.129.2338.3312.3312,0,0,0,.2851.1258.2785.2785,0,0,0,.1-.02.4421.4421,0,0,0,.1454-.13,1.3246,1.3246,0,0,0,.21-.7145,2.53,2.53,0,0,0-.1612-1.0072l0-.0221a.331.331,0,0,1-.0532-.1333A.2007.2007,0,0,0,58.5282,42.0142Z"/><path class="cls-1" d="M66.2013,45.665a.997.997,0,0,1-.7239-.32,1.42,1.42,0,0,1-.3434-.6456,5.6453,5.6453,0,0,1-.1519-.8968,9.4725,9.4725,0,0,1-.0392-1.05l.0166-1.0818c.0172-.1765.0277-.353.03-.53l.0071-.4636a2.9164,2.9164,0,0,1-.0177-.2985.34.34,0,0,0-.02-.1438.2769.2769,0,0,1-.1288-.2449q-.0393-.2874.2032-.284a.4011.4011,0,0,1,.2849.1368,1.0135,1.0135,0,0,1,.2114.6216,9.0989,9.0989,0,0,1-.02,1.2805l-.0138.9052q-.0074.4859.0185.95a5.3519,5.3519,0,0,0,.1087.8408,1.1375,1.1375,0,0,0,.2564.5561.3609.3609,0,0,0,.2632.1144.8885.8885,0,0,0,.51-.1578,1.9809,1.9809,0,0,0,.4481-.4127,3.6685,3.6685,0,0,0,.373-.5685q.17-.3172.3078-.6246.16-.3506.4562-.9536T68.8313,41.2q.2957-.5918.73-1.4906.0477-.2642.3116-.1719a.3129.3129,0,0,1,.186.1243.2009.2009,0,0,1,.03.21q0,.0222-.2281.4714t-.513,1.0521q-.2855.6033-.582,1.2278t-.4565.9758Q67.4372,45.6838,66.2013,45.665Zm-.8526-8.5042a.7132.7132,0,0,1,.1851.1685,1.0715,1.0715,0,0,1,.106.3,1.6882,1.6882,0,0,1,.0381.3871,2.04,2.04,0,0,1-.0388.3748,1.0525,1.0525,0,0,1-.0813.2637.3322.3322,0,0,1-.1783.1077c-.0888.0283-.1476.02-.1763-.0248-.0443-.0007-.0878-.0344-.131-.1013a1.1509,1.1509,0,0,1-.1071-.2114,1.8945,1.8945,0,0,1,.0379-.32,1.23,1.23,0,0,0-.0044-.4306.6559.6559,0,0,1,.0264-.2867,1.3324,1.3324,0,0,0,.029-.4413Q65.228,37.0816,65.3486,37.1608Z"/><path class="cls-1" d="M71.5126,44.907a.9223.9223,0,0,1-.582-.2076,1.0919,1.0919,0,0,1-.356-.5576,2.4817,2.4817,0,0,1,.4718-1.9582,2.0847,2.0847,0,0,0,.1693-.24,1.1845,1.1845,0,0,1,.1913-.24,5.1729,5.1729,0,0,0-.52-.6594,7.8835,7.8835,0,0,0-.5658-.55q-.3919-.3812-.674-.706a.9777.9777,0,0,1-.2769-.6557.7184.7184,0,0,1,.2506-.5041.9419.9419,0,0,1,1.0186-.1832,1.428,1.428,0,0,1,.59.4287,1.185,1.185,0,0,1,.278.6q.04.2656-.2476.3053-.2656.04-.3054-.2475a.5708.5708,0,0,0-.1715-.3339.899.899,0,0,0-.35-.2263.61.61,0,0,0-.3085-.0489.1419.1419,0,0,0-.1349.1526.7962.7962,0,0,0,.1488.3777,3.7986,3.7986,0,0,0,.5643.649q.2612.2473.5549.5385a4.1842,4.1842,0,0,1,.5312.6486q.3807-.3694.896-.8366a7.39,7.39,0,0,1,1.0725-.8117.275.275,0,0,1,.3741.094.2547.2547,0,0,1-.0946.3961,6.3036,6.3036,0,0,0-1.0719.79q-.5154.4673-.8742.8369a3.0126,3.0126,0,0,1,.2348.5336,3.0615,3.0615,0,0,1,.2019,1.24,1.8052,1.8052,0,0,1-.3023.9891A.8126.8126,0,0,1,71.5126,44.907Zm.1958-2.6912q-.0457.0655-.1013.1309a.8.8,0,0,0-.1019.1531,1.8863,1.8863,0,0,0-.3982,1.4957,1.0853,1.0853,0,0,0,.1288.2338.3314.3314,0,0,0,.2853.1258.2774.2774,0,0,0,.1-.02.4422.4422,0,0,0,.1456-.13,1.3227,1.3227,0,0,0,.21-.7145,2.5264,2.5264,0,0,0-.1612-1.0072l0-.0221a.3377.3377,0,0,1-.0532-.1333A.2.2,0,0,0,71.7084,42.2159Z"/><path class="cls-1" d="M49.399,76.0822A11.321,11.321,0,0,1,45.08,75.08a5.2624,5.2624,0,0,0-2.3022-.5722,5.343,5.343,0,0,0-2.3757.6426,8.8936,8.8936,0,0,1-4.24.93A11.3046,11.3046,0,0,1,31.8659,75.08a5.2624,5.2624,0,0,0-2.3022-.5722,5.343,5.343,0,0,0-2.3757.6426,8.8936,8.8936,0,0,1-4.24.93A11.3046,11.3046,0,0,1,18.6521,75.08a5.2624,5.2624,0,0,0-2.3022-.5722,5.343,5.343,0,0,0-2.3757.6426,8.9,8.9,0,0,1-4.261.93.6521.6521,0,1,0,0,1.3042,10.1492,10.1492,0,0,0,4.8023-1.0479,4.1345,4.1345,0,0,1,1.8344-.525,3.9836,3.9836,0,0,1,1.7828.4643,12.6153,12.6153,0,0,0,4.75,1.1071c.0146.0011.0293.0015.0439.0016h.0012a10.1491,10.1491,0,0,0,4.8014-1.0479,4.1345,4.1345,0,0,1,1.8344-.525,3.9836,3.9836,0,0,1,1.7828.4643,12.6153,12.6153,0,0,0,4.75,1.1071c.0146.0011.0293.0015.0439.0016h.0012a10.1491,10.1491,0,0,0,4.8014-1.0479,4.1345,4.1345,0,0,1,1.8344-.525,3.9836,3.9836,0,0,1,1.7828.4643,12.6153,12.6153,0,0,0,4.75,1.1071c.015.0011.03.0016.045.0016a.6521.6521,0,0,0,.0436-1.3027Z"/><path class="cls-1" d="M98.5232,76.0822A11.321,11.321,0,0,1,94.2039,75.08a5.2624,5.2624,0,0,0-2.3022-.5722,5.343,5.343,0,0,0-2.3757.6426,8.8936,8.8936,0,0,1-4.24.93A11.3046,11.3046,0,0,1,80.99,75.08a5.2624,5.2624,0,0,0-2.3022-.5722,5.343,5.343,0,0,0-2.3757.6426,8.8936,8.8936,0,0,1-4.24.93A11.3046,11.3046,0,0,1,67.7763,75.08a5.2624,5.2624,0,0,0-2.3022-.5722,5.343,5.343,0,0,0-2.3757.6426,8.9,8.9,0,0,1-4.261.93.6521.6521,0,0,0,0,1.3042A10.1492,10.1492,0,0,0,63.64,76.337a4.1345,4.1345,0,0,1,1.8344-.525,3.9836,3.9836,0,0,1,1.7828.4643,12.6153,12.6153,0,0,0,4.75,1.1071c.0146.0011.0293.0015.0439.0016h.0012a10.1491,10.1491,0,0,0,4.8014-1.0479,4.1345,4.1345,0,0,1,1.8344-.525,3.9836,3.9836,0,0,1,1.7828.4643,12.6153,12.6153,0,0,0,4.75,1.1071c.0146.0011.0293.0015.0439.0016h.0012a10.1491,10.1491,0,0,0,4.8014-1.0479,4.1345,4.1345,0,0,1,1.8344-.525,3.9836,3.9836,0,0,1,1.7828.4643,12.6153,12.6153,0,0,0,4.75,1.1071c.015.0011.03.0016.045.0016a.6521.6521,0,0,0,.0436-1.3027Z"/></svg>