<svg id="Capa_1" data-name="Capa 1" xmlns="http://www.w3.org/2000/svg" width="1920" height="81.775" viewBox="0 0 1920 81.775"><defs><style>.cls-1{fill:#8ABCB0;}</style></defs><title>TIL_Web Assets</title><path class="cls-1" d="M-23.3887,61.3312V34.0751a3.995,3.995,0,0,1,3.9951-3.995C-5.7857,30.08.8535,27.0518,6.71,24.3806c4.439-2.0244,8.6306-3.9369,14.5537-3.9369,6.0273,0,9.95,1.7027,14.104,3.5051,5.262,2.2845,11.8105,5.1243,26.3169,6.13,13.52-.02,20.1387-3.0353,25.9761-5.6978,4.439-2.0244,8.6309-3.9369,14.554-3.9369,6.0271,0,9.95,1.7027,14.1038,3.5051,5.2622,2.2845,11.8108,5.1243,26.3169,6.13,13.52-.02,20.1389-3.0353,25.9761-5.6978,4.439-2.0244,8.6309-3.9369,14.554-3.9369,6.0271,0,9.95,1.7027,14.1038,3.5051,5.28,2.2923,11.8508,5.1446,26.4609,6.1407a3.982,3.982,0,0,1,.8872.17,3.9506,3.9506,0,0,1,1.1226-.18c13.6082,0,20.2473-3.0283,26.1038-5.6995,4.439-2.0244,8.6306-3.9369,14.554-3.9369,6.0271,0,9.95,1.7027,14.1038,3.5051,5.262,2.2845,11.8108,5.1243,26.3169,6.13,13.52-.02,20.1389-3.0353,25.9761-5.6978,4.439-2.0244,8.6309-3.9369,14.554-3.9369,6.0271,0,9.95,1.7027,14.1038,3.5051,5.2622,2.2845,11.8108,5.1243,26.3169,6.13,13.52-.02,20.1389-3.0353,25.9763-5.6978,4.439-2.0244,8.6306-3.9369,14.5537-3.9369,6.0273,0,9.95,1.7027,14.104,3.5051,5.28,2.2923,11.8506,5.1446,26.4607,6.1407a2.9447,2.9447,0,0,0,2.01-.01c13.6079,0,20.2471-3.0283,26.1035-5.6995,4.439-2.0244,8.6309-3.9369,14.554-3.9369,6.0271,0,9.95,1.7027,14.1038,3.5051,5.2622,2.2845,11.8108,5.1243,26.3169,6.13,13.52-.02,20.1389-3.0353,25.9761-5.6978,4.439-2.0244,8.6309-3.9369,14.554-3.9369,6.0271,0,9.95,1.7027,14.1038,3.5051,5.2622,2.2845,11.8108,5.1243,26.3169,6.13,13.52-.02,20.1389-3.0353,25.9763-5.6978,4.439-2.0244,8.6306-3.9369,14.554-3.9369,6.0271,0,9.95,1.7027,14.1038,3.5051,5.28,2.2923,11.8506,5.1446,26.4607,6.1407a2.9447,2.9447,0,0,0,2.01-.01c13.6079,0,20.2473-3.0283,26.1035-5.6995,4.439-2.0244,8.6309-3.9369,14.554-3.9369,6.0271,0,9.95,1.7027,14.1038,3.5051,5.2622,2.2845,11.8108,5.1243,26.3169,6.13,13.52-.02,20.1389-3.0353,25.9763-5.6978,4.439-2.0244,8.6306-3.9369,14.5537-3.9369,6.0273,0,9.95,1.7027,14.104,3.5051,5.262,2.2845,11.8105,5.1243,26.3169,6.13,13.52-.02,20.1387-3.0353,25.9761-5.6978,4.439-2.0244,8.6309-3.9369,14.5537-3.9369,6.0273,0,9.95,1.7027,14.104,3.5051,5.28,2.2923,11.8506,5.1446,26.4609,6.1407a2.944,2.944,0,0,0,2.01-.01c13.6079,0,20.2473-3.0283,26.1035-5.6995,4.439-2.0244,8.6309-3.9369,14.554-3.9369,6.0271,0,9.95,1.7027,14.1038,3.5051,5.2622,2.2845,11.8108,5.1243,26.3169,6.13,13.52-.02,20.1389-3.0353,25.9763-5.6978,4.4387-2.0244,8.6306-3.9369,14.554-3.9369,6.0271,0,9.95,1.7027,14.1038,3.5051,5.262,2.2845,11.8108,5.1243,26.3169,6.13,13.52-.02,20.1389-3.0353,25.9761-5.6978,4.439-2.0244,8.6306-3.9369,14.554-3.9369,6.0271,0,9.95,1.7027,14.1038,3.5051,5.28,2.2923,11.8508,5.1446,26.4609,6.1407a2.944,2.944,0,0,0,2.01-.01c13.6082,0,20.2473-3.0283,26.1038-5.6995,4.439-2.0244,8.6306-3.9369,14.5537-3.9369,6.0273,0,9.95,1.7027,14.104,3.5051,5.262,2.2845,11.8105,5.1243,26.3169,6.13,13.52-.02,20.1387-3.0353,25.9761-5.6978,4.439-2.0244,8.6309-3.9369,14.5537-3.9369,6.0273,0,9.95,1.7027,14.104,3.5051,5.2622,2.2845,11.8108,5.1243,26.3169,6.13,13.52-.02,20.1389-3.0353,25.9761-5.6978,4.439-2.0244,8.6309-3.9369,14.554-3.9369,6.0271,0,9.95,1.7027,14.1038,3.5051,5.28,2.2923,11.8506,5.1446,26.4609,6.1407a2.944,2.944,0,0,0,2.01-.01c13.6082,0,20.2473-3.0283,26.1038-5.6995,4.4387-2.0244,8.6306-3.9369,14.554-3.9369,6.0271,0,9.95,1.7027,14.1038,3.5051,5.262,2.2845,11.8108,5.1243,26.3169,6.13,13.52-.02,20.1389-3.0353,25.9761-5.6978,4.439-2.0244,8.6306-3.9369,14.554-3.9369,6.0271,0,9.95,1.7027,14.1038,3.5051,5.2622,2.2845,11.8108,5.1243,26.3171,6.13,13.52-.02,20.1387-3.0353,25.9761-5.6978,4.439-2.0244,8.6309-3.9369,14.5537-3.9369,6.0273,0,9.95,1.7027,14.104,3.5051,5.28,2.2923,11.8506,5.1446,26.46,6.1407a2.9455,2.9455,0,0,0,2.01-.01c13.6079,0,20.2471-3.0283,26.1035-5.6995,4.439-2.0244,8.6309-3.9369,14.5537-3.9369,6.0273,0,9.95,1.7027,14.104,3.5051,5.2622,2.2845,11.8105,5.1243,26.3169,6.13,13.52-.02,20.1387-3.0353,25.9761-5.6978,4.439-2.0244,8.6309-3.9369,14.5537-3.9369,6.0273,0,9.95,1.7027,14.104,3.5051,5.2622,2.2845,11.811,5.1243,26.3169,6.13,13.52-.02,20.1392-3.0353,25.9761-5.6978,4.439-2.0244,8.6309-3.9369,14.5542-3.9369,6.0269,0,9.95,1.7027,14.1035,3.5051,5.28,2.2923,11.8506,5.1446,26.4609,6.1407a3.9942,3.9942,0,0,1,3.7144,4.2568V61.3312Z"/></svg>