<svg id="Capa_1" data-name="Capa 1" xmlns="http://www.w3.org/2000/svg" xmlns:xlink="http://www.w3.org/1999/xlink" width="51" height="51" viewBox="0 0 51 51"><defs><style>.cls-1{fill:none;}.cls-2{fill:#fff;}.cls-3{clip-path:url(#clip-path);}</style><clipPath id="clip-path"><rect class="cls-1" x="-578.0318" y="213.2327" width="1920" height="376"/></clipPath></defs><title>BV_Mail Assets</title><path class="cls-2" d="M38.3961,46.7881a19.6906,19.6906,0,0,1-6.3065-1.29A46.058,46.058,0,0,1,16.3232,34.6051C11.3067,29.5885,7.4368,23.9987,5.43,18.8388c-1.72-4.73-1.72-8.6,0-10.32a3.8,3.8,0,0,0,.7167-.86c1.72-1.5766,3.5833-3.5833,5.8765-3.44,1.72,0,3.2966,1.1466,4.8732,3.1533,4.8732,6.02,2.7233,8.17.1433,10.75l-.2867.43c-.43.43-1.1466,2.2933,6.1632,9.6031a38.8549,38.8549,0,0,0,6.02,5.16c1.0033.7167,2.8666,1.72,3.5833.86l.43-.43c2.4366-2.58,4.5866-4.73,10.75.1433,2.0066,1.5766,3.01,3.2966,3.1533,4.8732.1433,2.4366-1.8633,4.3-3.5833,5.8765a3.8,3.8,0,0,1-.86.7167A5.1057,5.1057,0,0,1,38.3961,46.7881Z"/><g class="cls-3"><image width="3984" height="2656" transform="translate(-588.1949 -243.3877) scale(0.4854)" xlink:href="../../../../../FOTOS/Originales/Villa del Palmar Pto Vallarta/Villa-del-Palmar-Puerto-Vallarta-Beach-6-.jpg"/></g></svg>