<svg id="Capa_1" data-name="Capa 1" xmlns="http://www.w3.org/2000/svg" xmlns:xlink="http://www.w3.org/1999/xlink" width="63" height="63" viewBox="0 0 63 63"><defs><style>.cls-1{fill:none;}.cls-2{fill:#fff;}.cls-3{clip-path:url(#clip-path);}</style><clipPath id="clip-path"><rect class="cls-1" x="-1176.9682" y="219.2327" width="1920" height="376"/></clipPath></defs><title>BV_Mail Assets</title><path class="cls-2" d="M43.2032,5.38H19.7962A14.4325,14.4325,0,0,0,5.38,19.7965v23.407A14.4323,14.4323,0,0,0,19.7962,57.62h23.407A14.4326,14.4326,0,0,0,57.62,43.2035V19.7965A14.4324,14.4324,0,0,0,43.2032,5.38ZM52.985,43.2035a9.7924,9.7924,0,0,1-9.7815,9.7812H19.7962a9.7919,9.7919,0,0,1-9.7809-9.7812V19.7965a9.7923,9.7923,0,0,1,9.7809-9.7812h23.407a9.7926,9.7926,0,0,1,9.7815,9.7812v23.407Z"/><path class="cls-2" d="M31.5,18.04A13.46,13.46,0,1,0,44.9607,31.5006,13.4759,13.4759,0,0,0,31.5,18.04Zm0,22.2856A8.8255,8.8255,0,1,1,40.3258,31.5,8.8356,8.8356,0,0,1,31.5,40.3255Z"/><path class="cls-2" d="M45.5253,14.11a3.397,3.397,0,1,0,2.404.995A3.4123,3.4123,0,0,0,45.5253,14.11Z"/><g class="cls-3"><image width="3984" height="2656" transform="translate(-1187.1313 -237.3877) scale(0.4854)" xlink:href="../../../../../FOTOS/Originales/Villa del Palmar Pto Vallarta/Villa-del-Palmar-Puerto-Vallarta-Beach-6-.jpg"/></g></svg>