<svg id="Capa_1" data-name="Capa 1" xmlns="http://www.w3.org/2000/svg" xmlns:xlink="http://www.w3.org/1999/xlink" width="64" height="64" viewBox="0 0 64 64"><defs><style>.cls-1{fill:none;}.cls-2{fill:#fff;}.cls-3{clip-path:url(#clip-path);}</style><clipPath id="clip-path"><rect class="cls-1" x="-988.9743" y="219.7327" width="1920" height="376"/></clipPath></defs><title>BV_Mail Assets</title><path class="cls-2" d="M58.7507,31.3118a26.3125,26.3125,0,0,1-38.96,22.821L5.2493,58.7507l4.74-13.9864A25.7965,25.7965,0,0,1,6.2228,31.31a26.2647,26.2647,0,0,1,52.5279.0017ZM32.4824,9.4049a22.02,22.02,0,0,0-22.08,21.9121A21.6753,21.6753,0,0,0,14.609,44.1607l-2.7565,8.135L20.3348,49.6A21.9683,21.9683,0,1,0,32.4824,9.4049Zm13.2659,27.91c-.164-.2634-.5932-.4239-1.2352-.7449-.64-.321-3.81-1.865-4.3981-2.0743-.5932-.2146-1.0223-.3227-1.4515.3175-.4239.64-1.6591,2.0778-2.0377,2.507-.3751.4274-.75.4815-1.3939.1657a17.75,17.75,0,0,1-5.18-3.17,19.2191,19.2191,0,0,1-3.58-4.4243c-.3786-.6385-.0384-.984.2809-1.3015.2879-.2879.6438-.7467.9665-1.1218a4.2587,4.2587,0,0,0,.6438-1.0625,1.19,1.19,0,0,0-.0541-1.1218c-.1605-.321-1.4463-3.4613-1.9853-4.74-.5356-1.277-1.0712-1.0659-1.448-1.0659-.3751,0-.8043-.0523-1.2334-.0523a2.3568,2.3568,0,0,0-1.7149.7955,7.1491,7.1491,0,0,0-2.2523,5.328c0,3.1472,2.3046,6.1811,2.6274,6.6068.3245.4239,4.4557,7.0865,11,9.6441,6.5475,2.5558,6.5475,1.7027,7.7268,1.5946,1.1828-.1082,3.81-1.544,4.344-3.0338A5.308,5.308,0,0,0,45.7483,37.3149Z"/><g class="cls-3"><image width="3984" height="2656" transform="translate(-999.1374 -236.8877) scale(0.4854)" xlink:href="../../../../../FOTOS/Originales/Villa del Palmar Pto Vallarta/Villa-del-Palmar-Puerto-Vallarta-Beach-6-.jpg"/></g></svg>