<svg id="Capa_1" data-name="Capa 1" xmlns="http://www.w3.org/2000/svg" width="321" height="53" viewBox="0 0 321 53"><defs><style>.cls-1{fill:#80c6be;}.cls-2{fill:#f3e16c;}.cls-3{fill:#e2c72e;}.cls-4{fill:#2f3239;}</style></defs><title>TM_FAQs Assets</title><path class="cls-1" d="M152.8751,32.497V25.2579h-3.29V22.6229h9.8741v2.6349h-3.2931V32.497Z"/><path class="cls-1" d="M160.7749,32.497V22.6229h9.8741V32.497Zm6.581-2.6324V25.2579h-3.29v4.6067Z"/><path class="cls-2" d="M144.808,37.1965a18.9122,18.9122,0,0,0,1.4555,1.8117l3.3286-3.3286A14.11,14.11,0,0,1,169.506,15.7657l3.3286-3.3286a18.8793,18.8793,0,0,0-1.8113-1.4555V4.03h-4.254V0H153.6069V4.03h-4.2538v6.9514a18.9143,18.9143,0,0,0-4.5451,4.5449h-6.9513V19.78h-4.03V32.9429h4.03v4.2536Z"/><path class="cls-3" d="M182.52,32.9429h4.03V19.78h-4.03v-4.254H175.568a18.9139,18.9139,0,0,0-2.7334-3.0894l-3.3286,3.3286A14.11,14.11,0,1,1,149.5921,35.68l-3.3286,3.3286a18.9153,18.9153,0,0,0,3.09,2.7334v6.9513h4.2538v4.03h13.1625v-4.03h4.254V41.7416a18.91,18.91,0,0,0,4.5447-4.5451H182.52Z"/><path class="cls-4" d="M6.4766,34.153V19.9045H0V14.7184H19.4345v5.1861H12.9533V34.153Z"/><path class="cls-4" d="M22.0253,34.153V14.7184H41.46V30.2671H37.5691L41.46,34.153H34.9784l-3.8858-3.8858H28.5018V34.153ZM34.9784,23.79V19.9045H28.5018V23.79Z"/><path class="cls-4" d="M44.0505,34.153V14.7184H63.485V34.153H57.0036V30.2671H50.5271V34.153Zm12.9531-9.0673V19.9045H50.5271v5.1811Z"/><path class="cls-4" d="M72.5523,34.153l-6.4767-6.4764V14.7184h7.772V26.3809h3.886V14.7184H85.51V27.6766L79.0289,34.153Z"/><path class="cls-4" d="M88.1009,34.153V14.7184h19.4345v5.1861H95.8729v2.5906h11.6625v3.8858H95.8729v2.5906h11.6625V34.153Z"/><path class="cls-4" d="M110.1261,34.153V14.7184h7.7718V28.9715h10.3674V34.153Z"/><path class="cls-4" d="M195.33,34.153V14.7184h5.1811l5.1815,5.1861v.0047l.65.64,5.8264-5.8313h5.1861V34.153h-6.4814V23.79l-4.5311,4.5358L201.8066,23.79V34.153Z"/><path class="cls-4" d="M219.9459,34.153V14.7184H239.38v5.1861H227.7179v2.5906H239.38v3.8858H227.7179v2.5906H239.38V34.153Z"/><path class="cls-4" d="M241.9713,34.153l9.0669-9.0673h.005l.6453-.65-9.7173-9.7173h10.3626l2.5906,2.5954,2.5905-2.5954h10.3672L258.81,23.79h-.0047l-.6407.6453,9.7173,9.7173H257.5149l-2.5905-2.5906-2.5906,2.5906Z"/><path class="cls-4" d="M270.4731,21.2V14.7184h7.7716V21.2Zm0,12.9531V22.4951h7.7716V34.153Z"/><path class="cls-4" d="M280.8356,34.153V14.7184h18.1393V21.2h-6.4814V18.6091h-3.8862v11.658h3.8862V27.6766h6.4814V34.153Z"/><path class="cls-4" d="M301.5655,34.153V14.7184H321V34.153Zm12.9531-5.1815V19.9045h-6.4768v9.0669Z"/></svg>