<svg id="Capa_1" data-name="Capa 1" xmlns="http://www.w3.org/2000/svg" width="224" height="95" viewBox="0 0 224 95"><defs><style>.cls-1{fill:#80c6be;}.cls-2{fill:#517d78;}.cls-3{fill:#e2c72e;}</style></defs><title>TM_FAQs Assets</title><path class="cls-1" d="M0,0H202.5026A21.4974,21.4974,0,0,1,224,21.4974V73.5026A21.4974,21.4974,0,0,1,202.5026,95H0a0,0,0,0,1,0,0V0A0,0,0,0,1,0,0Z"/><path class="cls-2" d="M72.44,36.91v6.88H87.8614v6.4644H72.44V62.7671H65.3287V30.4458h24.61V36.91Z"/><path class="cls-2" d="M115.983,62.7671l-2.9551-7.249H99.3609l-2.9551,7.249h-7.249l13.8516-32.5522h6.5566l13.8521,32.5522Zm-9.7886-24.01L101.9,49.2383h8.5879Z"/><path class="cls-2" d="M155.1871,63.7369l-3.5557-3.186a17.6156,17.6156,0,0,1-9.6035,2.7705c-9.9736,0-17.13-7.4341-17.13-16.6226v-.0923c0-9.1885,7.249-16.7144,17.2227-16.7144s17.13,7.4336,17.13,16.6221v.0923a16.3342,16.3342,0,0,1-2.8628,9.2808l3.3247,2.8164Zm-3.3706-17.13c0-5.5405-4.0635-10.1582-9.7886-10.1582s-9.6968,4.5249-9.6968,10.0659v.0923c0,5.541,4.0635,10.1582,9.7891,10.1582a10.4126,10.4126,0,0,0,4.2476-.8774l-5.2637-4.4785L145.629,46.33l5.31,4.8018a10.7061,10.7061,0,0,0,.8774-4.4326Z"/><path class="cls-2" d="M173.5206,63.229a17.335,17.335,0,0,1-10.62-3.74l3.001-4.6172a13.9965,13.9965,0,0,0,7.8032,2.9551c2.0317,0,2.9551-.7388,2.9551-1.8472v-.0923c0-1.5234-2.4009-2.0317-5.125-2.8628-3.4629-1.0156-7.3877-2.6318-7.3877-7.4336v-.0923c0-5.0332,4.063-7.85,9.05-7.85a17.13,17.13,0,0,1,9.2349,2.8628L179.754,45.36a14.66,14.66,0,0,0-6.6953-2.3086c-1.708,0-2.5854.7388-2.5854,1.7085v.0923c0,1.3853,2.355,2.0313,5.0327,2.9551,3.4629,1.1543,7.48,2.8164,7.48,7.3413v.0923C182.9859,60.7354,178.8766,63.229,173.5206,63.229Z"/><path class="cls-3" d="M70.9835,35.4541v6.88H86.4054v6.4644H70.9835V61.3111H63.8726V28.99h24.61v6.4644Z"/><path class="cls-3" d="M114.5269,61.3111l-2.9551-7.249H97.9049L94.95,61.3111h-7.249l13.8516-32.5522h6.5566L121.961,61.3111Zm-9.7886-24.01-4.2939,10.481h8.5879Z"/><path class="cls-3" d="M153.731,62.2808l-3.5557-3.186a17.6156,17.6156,0,0,1-9.6035,2.7705c-9.9736,0-17.13-7.4341-17.13-16.6226V45.15c0-9.1885,7.249-16.7144,17.2227-16.7144s17.13,7.4336,17.13,16.6221V45.15a16.3342,16.3342,0,0,1-2.8628,9.2808l3.3247,2.8164ZM150.36,45.15c0-5.5405-4.0635-10.1582-9.7886-10.1582s-9.6968,4.5249-9.6968,10.0659V45.15c0,5.541,4.0635,10.1582,9.7891,10.1582a10.4126,10.4126,0,0,0,4.2476-.8774l-5.2637-4.4785,4.5249-5.0791,5.31,4.8018a10.7061,10.7061,0,0,0,.8774-4.4326Z"/><path class="cls-3" d="M172.0645,61.773a17.335,17.335,0,0,1-10.62-3.74l3.001-4.6172a13.9965,13.9965,0,0,0,7.8032,2.9551c2.0317,0,2.9551-.7388,2.9551-1.8472v-.0923c0-1.5234-2.4009-2.0317-5.125-2.8628-3.4629-1.0156-7.3877-2.6318-7.3877-7.4336v-.0923c0-5.0332,4.063-7.85,9.05-7.85a17.13,17.13,0,0,1,9.2349,2.8628l-2.6782,4.8481a14.66,14.66,0,0,0-6.6953-2.3086c-1.708,0-2.5854.7388-2.5854,1.7085v.0923c0,1.3853,2.355,2.0313,5.0327,2.9551,3.4629,1.1543,7.48,2.8164,7.48,7.3413v.0923C181.53,59.2793,177.42,61.773,172.0645,61.773Z"/></svg>