<svg id="Capa_1" data-name="Capa 1" xmlns="http://www.w3.org/2000/svg" xmlns:xlink="http://www.w3.org/1999/xlink" width="260" height="154" viewBox="0 0 260 154"><defs><style>.cls-1{fill:none;}.cls-2{fill:#fff;}.cls-3{fill:#f0831c;}.cls-4{clip-path:url(#clip-path);}</style><clipPath id="clip-path"><rect class="cls-1" x="-1394.2508" y="306.9084" width="1920" height="376"/></clipPath></defs><title>BV_Mail Assets</title><path class="cls-2" d="M147.97,107.1084l-10.7472,41.28h-7.3279l-10.7478-41.28h8.7936l5.5369,26.38h.1627l5.5369-26.38Z"/><path class="cls-2" d="M151.308,98.7221v-8.305h8.3044v8.305Zm0,49.6667v-41.28h8.3044v41.28Z"/><path class="cls-2" d="M166.4517,148.3888V90.4171h8.3044V110.854h.1632a10.0377,10.0377,0,0,1,3.2975-3.1349,8.5822,8.5822,0,0,1,4.3557-1.0993,8.7441,8.7441,0,0,1,4.6822,1.0585,8.9168,8.9168,0,0,1,2.7273,2.6871,8.2243,8.2243,0,0,1,1.0588,3.42,63.7693,63.7693,0,0,1,.2437,6.595v15.7142a36.2051,36.2051,0,0,1-.3253,5.4552,11.0441,11.0441,0,0,1-1.0588,3.42q-2.1178,3.9082-7.2462,3.9082a7.7745,7.7745,0,0,1-4.7224-1.2214,20.3566,20.3566,0,0,1-3.1757-3.0124v3.7453ZM182.98,119.81a6.6607,6.6607,0,0,0-.8553-3.42,3.4024,3.4024,0,0,0-3.2159-1.4657,3.898,3.898,0,0,0-2.9722,1.2619,4.5216,4.5216,0,0,0-1.1806,3.2162v16.04a5.7393,5.7393,0,0,0,1.14,3.7044,3.664,3.664,0,0,0,3.0124,1.4249,3.39,3.39,0,0,0,3.094-1.547,7.5308,7.5308,0,0,0,.9771-4.0709Z"/><path class="cls-2" d="M222.1426,130.8833H205.6959v5.6182a3.9854,3.9854,0,0,0,1.099,3.0124,4.1,4.1,0,0,0,2.9716,1.0585q2.3609,0,3.1349-1.3841a7.4638,7.4638,0,0,0,.9363-2.7684h8.305a11.889,11.889,0,0,1-3.3383,8.7936,11.697,11.697,0,0,1-3.9079,2.6868,12.9032,12.9032,0,0,1-5.13.9771,12.72,12.72,0,0,1-6.6358-1.6283,11.0308,11.0308,0,0,1-5.4144-8.0607,30.5444,30.5444,0,0,1-.3253-4.6411V120.95a30.5667,30.5667,0,0,1,.3253-4.6411,11.03,11.03,0,0,1,5.4144-8.06,12.7283,12.7283,0,0,1,6.6358-1.6286,13.2,13.2,0,0,1,5.17.9771,11.5944,11.5944,0,0,1,3.9493,2.6868,13.3435,13.3435,0,0,1,3.2567,9.2008ZM205.6959,124.37h8.1417v-4.7224a5.0355,5.0355,0,0,0-1.099-3.5418,4.3309,4.3309,0,0,0-5.9438,0,5.0355,5.0355,0,0,0-1.099,3.5418Z"/><path class="cls-2" d="M243.3118,118.67a4.1379,4.1379,0,0,0-1.3433-3.1754,4.3784,4.3784,0,0,0-2.8906-1.0585,3.7132,3.7132,0,0,0-3.013,1.2622,4.3717,4.3717,0,0,0-1.0582,2.89,4.8,4.8,0,0,0,.57,2.2391,5.29,5.29,0,0,0,2.9308,1.9948l4.885,1.9543q4.6411,1.7917,6.3916,4.885a13.4933,13.4933,0,0,1,1.7508,6.758,12.44,12.44,0,0,1-.9363,4.8445,12.8675,12.8675,0,0,1-2.5647,3.949,11.6935,11.6935,0,0,1-3.9085,2.6868,12.4726,12.4726,0,0,1-4.9667.9771,11.9723,11.9723,0,0,1-8.4677-3.1754,11.6355,11.6355,0,0,1-2.7681-3.8677,13.795,13.795,0,0,1-1.14-5.4144H234.6a7.9011,7.9011,0,0,0,1.1806,3.1754,3.6041,3.6041,0,0,0,3.2975,1.4657,4.9078,4.9078,0,0,0,3.2159-1.1806,4.0452,4.0452,0,0,0,1.4249-3.2975,4.8218,4.8218,0,0,0-.8955-2.9311,7.0626,7.0626,0,0,0-3.2567-2.1169l-3.99-1.4657a13.5848,13.5848,0,0,1-6.1473-4.356A11.1452,11.1452,0,0,1,227.19,118.67a11.988,11.988,0,0,1,.9771-4.8445,11.792,11.792,0,0,1,2.6871-3.8674,10.97,10.97,0,0,1,3.8263-2.4833,12.9158,12.9158,0,0,1,4.7224-.855,12.1024,12.1024,0,0,1,4.6822.8958A10.7315,10.7315,0,0,1,247.79,110.04a12.0856,12.0856,0,0,1,2.4428,3.8677,12.728,12.728,0,0,1,.8955,4.7629Z"/><path class="cls-2" d="M104.8731,74.1662V16.1945h8.3044V36.6313h.1632a10.0377,10.0377,0,0,1,3.2975-3.1349,8.5822,8.5822,0,0,1,4.3557-1.0993,8.7441,8.7441,0,0,1,4.6822,1.0585,8.9168,8.9168,0,0,1,2.7273,2.6871,8.2243,8.2243,0,0,1,1.0588,3.42,63.7694,63.7694,0,0,1,.2437,6.595V61.8716a36.2051,36.2051,0,0,1-.3253,5.4552,11.0441,11.0441,0,0,1-1.0588,3.42q-2.1178,3.9082-7.2462,3.9082a7.7745,7.7745,0,0,1-4.7224-1.2214,20.3566,20.3566,0,0,1-3.1757-3.0124v3.7453Zm16.5284-28.5786a6.6607,6.6607,0,0,0-.8553-3.42,3.4024,3.4024,0,0,0-3.2159-1.4657,3.898,3.898,0,0,0-2.9722,1.2619,4.5216,4.5216,0,0,0-1.1806,3.2162V61.22a5.7393,5.7393,0,0,0,1.14,3.7044A3.664,3.664,0,0,0,117.33,66.35a3.39,3.39,0,0,0,3.094-1.547,7.5308,7.5308,0,0,0,.9771-4.0709Z"/><path class="cls-2" d="M160.5641,56.6607H144.1173v5.6182a3.9854,3.9854,0,0,0,1.099,3.0124,4.1,4.1,0,0,0,2.9716,1.0585q2.3609,0,3.1349-1.3841a7.4638,7.4638,0,0,0,.9363-2.7684h8.305a11.889,11.889,0,0,1-3.3383,8.7936,11.697,11.697,0,0,1-3.9079,2.6868,12.9032,12.9032,0,0,1-5.13.9771,12.72,12.72,0,0,1-6.6358-1.6283,11.0308,11.0308,0,0,1-5.4144-8.0607,30.5444,30.5444,0,0,1-.3253-4.6411V46.7273a30.5667,30.5667,0,0,1,.3253-4.6411,11.03,11.03,0,0,1,5.4144-8.06,12.7283,12.7283,0,0,1,6.6358-1.6286,13.2,13.2,0,0,1,5.17.9771,11.5944,11.5944,0,0,1,3.9493,2.6868,13.3435,13.3435,0,0,1,3.2567,9.2008ZM144.1173,50.147h8.1417V45.4246a5.0355,5.0355,0,0,0-1.099-3.5418,4.3309,4.3309,0,0,0-5.9438,0,5.0355,5.0355,0,0,0-1.099,3.5418Z"/><path class="cls-2" d="M182.3844,74.1662V69.9323h-.1627a15.3461,15.3461,0,0,1-3.2975,3.501,7.8119,7.8119,0,0,1-4.6816,1.2214,10.4274,10.4274,0,0,1-2.9722-.4478,7.6844,7.6844,0,0,1-2.8906-1.6692,7.9448,7.9448,0,0,1-2.2388-3.2975,15.3339,15.3339,0,0,1-.8553-5.5774,29.4189,29.4189,0,0,1,.57-6.1473,9.8112,9.8112,0,0,1,2.1169-4.4376,8.8532,8.8532,0,0,1,3.99-2.5647,20.381,20.381,0,0,1,6.4324-.855h.8955a4.6349,4.6349,0,0,1,.8955.0816,5.0186,5.0186,0,0,0,.9771.0813,10.11,10.11,0,0,1,1.2214.0813V45.5875a6.3327,6.3327,0,0,0-.8955-3.5013,3.5854,3.5854,0,0,0-3.2567-1.3841,4.6935,4.6935,0,0,0-2.9722,1.0585,5.0252,5.0252,0,0,0-1.75,3.094h-8.0607a13.2718,13.2718,0,0,1,3.7453-8.9562,11.795,11.795,0,0,1,3.9079-2.565,13.4074,13.4074,0,0,1,5.13-.9363,14.4445,14.4445,0,0,1,4.885.8142,11.1708,11.1708,0,0,1,3.99,2.4428,11.9456,11.9456,0,0,1,2.6055,4.0709,15.2905,15.2905,0,0,1,.9771,5.7V74.1662Zm0-17.75a13.66,13.66,0,0,0-2.28-.2443,8.1664,8.1664,0,0,0-4.6005,1.2622q-1.9137,1.263-1.9134,4.6a6.05,6.05,0,0,0,1.14,3.8266,3.7954,3.7954,0,0,0,3.1757,1.4657,4.0983,4.0983,0,0,0,3.2975-1.3841,5.85,5.85,0,0,0,1.1806-3.9082Z"/><path class="cls-2" d="M205.5888,62.2789a3.9857,3.9857,0,0,0,1.1,3.0124A4.1,4.1,0,0,0,209.66,66.35q2.3609,0,3.1349-1.3841a7.4638,7.4638,0,0,0,.9363-2.7684h8.305a11.889,11.889,0,0,1-3.3383,8.7936,11.6935,11.6935,0,0,1-3.9085,2.6868,12.9,12.9,0,0,1-5.1293.9771,12.72,12.72,0,0,1-6.6358-1.6283,11.0308,11.0308,0,0,1-5.4144-8.0607,30.5407,30.5407,0,0,1-.3259-4.6411V46.7273a30.5631,30.5631,0,0,1,.3259-4.6411,11.03,11.03,0,0,1,5.4144-8.06,12.7283,12.7283,0,0,1,6.6358-1.6286,13.2022,13.2022,0,0,1,5.17.9771,11.5944,11.5944,0,0,1,3.9493,2.6868,13.809,13.809,0,0,1,3.2567,9.5264h-8.305a5.3071,5.3071,0,0,0-1.099-3.7047,4.3309,4.3309,0,0,0-5.9438,0,5.0356,5.0356,0,0,0-1.1,3.5418Z"/><path class="cls-2" d="M225.9447,74.1662V16.1945h8.3044V36.8753h.1632a11.8063,11.8063,0,0,1,3.1343-3.2159,8.0767,8.0767,0,0,1,4.6822-1.2622,9.5236,9.5236,0,0,1,3.094.5294,7.18,7.18,0,0,1,2.7681,1.75,8.8313,8.8313,0,0,1,1.9543,3.1349,13.1467,13.1467,0,0,1,.7323,4.6816V74.1662H242.473V45.5875a5.5315,5.5315,0,0,0-1.0588-3.5826,3.6627,3.6627,0,0,0-3.0124-1.3027,3.5008,3.5008,0,0,0-3.2567,1.4657,8.1819,8.1819,0,0,0-.8961,4.2338V74.1662Z"/><rect class="cls-3" x="18.7856" y="80.6346" width="232.0864" height="3.9379"/><path class="cls-3" d="M33.8445,73.9162h0a3.84,3.84,0,0,1-5.2132-1.52L16.0756,50.0672a3.84,3.84,0,0,1,1.52-5.2132h0a3.84,3.84,0,0,1,5.2132,1.52L35.3648,68.703A3.84,3.84,0,0,1,33.8445,73.9162Z"/><rect class="cls-3" x="53.5474" y="41.3886" width="7.6797" height="58.5341" rx="3.1699" ry="3.1699" transform="translate(128.0428 13.2684) rotate(90)"/><path class="cls-3" d="M32.6556,74.4955h6.3661a0,0,0,0,1,0,0v5.668a2.6277,2.6277,0,0,1-2.6277,2.6277H35.2832a2.6277,2.6277,0,0,1-2.6277-2.6277v-5.668A0,0,0,0,1,32.6556,74.4955Z"/><path class="cls-3" d="M76.6646,74.4955h6.3661a0,0,0,0,1,0,0v5.668a2.6277,2.6277,0,0,1-2.6277,2.6277H79.2923a2.6277,2.6277,0,0,1-2.6277-2.6277v-5.668A0,0,0,0,1,76.6646,74.4955Z"/><rect class="cls-3" x="26.8897" y="53.8949" width="51.2854" height="4.1001" transform="translate(6.0894 117.0395) rotate(-99.5603)"/><path class="cls-3" d="M27.869,32.219c9.6979-1.6334,18.3379-.4559,21.6943,2.6084,2.1675-3.9946,9.9451-7.9373,19.6431-9.5706,8.1282-1.369,15.5125-.7631,19.6665,1.273C85.7537,12.46,66.1487,4.0816,44.427,7.74,22.2424,11.4766,6.2535,26.3526,8.7149,40.9666l.0077.041C11.4193,37.2895,18.805,33.7456,27.869,32.219Z"/><rect class="cls-3" x="42.1532" y="5.2875" width="4.1234" height="2.5465" rx="1.0511" ry="1.0511" transform="translate(-0.4756 7.4346) rotate(-9.5603)"/><g class="cls-4"><image width="3984" height="2656" transform="translate(-1404.4139 -149.712) scale(0.4854)" xlink:href="../../../../../FOTOS/Originales/Villa del Palmar Pto Vallarta/Villa-del-Palmar-Puerto-Vallarta-Beach-6-.jpg"/></g></svg>