<svg id="Capa_1" data-name="Capa 1" xmlns="http://www.w3.org/2000/svg" xmlns:xlink="http://www.w3.org/1999/xlink" width="61" height="61" viewBox="0 0 61 61"><defs><style>.cls-1{fill:none;}.cls-2{fill:#fff;}.cls-3{clip-path:url(#clip-path);}</style><clipPath id="clip-path"><rect class="cls-1" x="-778.9882" y="218.2327" width="1920" height="376"/></clipPath></defs><title>BV_Mail Assets</title><path class="cls-2" d="M40.98,5.0869H20.02A14.93,14.93,0,0,0,5.0819,20.0147V40.9753A14.9389,14.9389,0,0,0,20.02,55.9131H40.98A14.9389,14.9389,0,0,0,55.9181,40.9753V20.0147A14.93,14.93,0,0,0,40.98,5.0869ZM51.9427,40.9753A10.9645,10.9645,0,0,1,40.98,51.9377H38.6447v-16.18h6.1322l1.0137-6.152H38.6447V25.3319A2.9776,2.9776,0,0,1,41.6263,22.35h4.0748v-6.152H41.6263a9.1343,9.1343,0,0,0-9.1336,9.1336v4.2736H26.53v6.152h5.9632v16.18H20.02A10.9518,10.9518,0,0,1,9.0573,40.9753V20.0147A10.9645,10.9645,0,0,1,20.02,9.0524H40.98A10.9645,10.9645,0,0,1,51.9427,20.0147Z"/><g class="cls-3"><image width="3984" height="2656" transform="translate(-789.1513 -238.3877) scale(0.4854)" xlink:href="../../../../../FOTOS/Originales/Villa del Palmar Pto Vallarta/Villa-del-Palmar-Puerto-Vallarta-Beach-6-.jpg"/></g></svg>