<svg id="Capa_1" data-name="Capa 1" xmlns="http://www.w3.org/2000/svg" xmlns:xlink="http://www.w3.org/1999/xlink" width="421" height="97" viewBox="0 0 421 97"><defs><style>.cls-1{fill:none;}.cls-2{fill:#41a3a3;}.cls-3{fill:#f0831c;}.cls-4{clip-path:url(#clip-path);}</style><clipPath id="clip-path"><rect class="cls-1" y="234.7327" width="1920" height="376"/></clipPath></defs><title>BV_Mail Assets</title><path class="cls-2" d="M304.6549,40.6749,293.5488,83.3338h-7.5726L274.87,40.6749h9.0872l5.7217,27.2613h.1681l5.7217-27.2613Z"/><path class="cls-2" d="M308.1041,32.0086V23.4263h8.5817v8.5823Zm0,51.3252V40.6749h8.5817V83.3338Z"/><path class="cls-2" d="M323.7535,83.3338V23.4263h8.5817V44.5456h.1687a10.3729,10.3729,0,0,1,3.4076-3.24,8.8688,8.8688,0,0,1,4.5011-1.136,9.0361,9.0361,0,0,1,4.8385,1.0938,9.2146,9.2146,0,0,1,2.8184,2.7768,8.4989,8.4989,0,0,1,1.0941,3.5338,65.8987,65.8987,0,0,1,.2518,6.8152V70.6287a37.414,37.414,0,0,1-.3362,5.6374A11.4129,11.4129,0,0,1,347.9852,79.8q-2.1885,4.0387-7.4882,4.0387a8.0341,8.0341,0,0,1-4.88-1.2622,21.0363,21.0363,0,0,1-3.2817-3.113v3.87Zm17.08-29.5329a6.8831,6.8831,0,0,0-.8838-3.5338,3.516,3.516,0,0,0-3.3233-1.5146,4.0281,4.0281,0,0,0-3.0714,1.3041,4.6726,4.6726,0,0,0-1.22,3.3236V69.9557a5.9309,5.9309,0,0,0,1.1785,3.8281,3.7864,3.7864,0,0,0,3.113,1.4725,3.5032,3.5032,0,0,0,3.1974-1.5987,7.7823,7.7823,0,0,0,1.01-4.2068Z"/><path class="cls-2" d="M381.3041,65.2437H364.3081V71.05a4.1185,4.1185,0,0,0,1.1357,3.113,4.2368,4.2368,0,0,0,3.0708,1.0938q2.44,0,3.24-1.43a7.713,7.713,0,0,0,.9676-2.8609h8.5823a12.286,12.286,0,0,1-3.45,9.0872,12.0876,12.0876,0,0,1-4.0384,2.7765,13.334,13.334,0,0,1-5.3012,1.01,13.1445,13.1445,0,0,1-6.8574-1.6827,11.3991,11.3991,0,0,1-5.5952-8.33,31.5643,31.5643,0,0,1-.3362-4.796V54.9787a31.5874,31.5874,0,0,1,.3362-4.796,11.398,11.398,0,0,1,5.5952-8.33,13.1533,13.1533,0,0,1,6.8574-1.683,13.6409,13.6409,0,0,1,5.3428,1.01,11.9816,11.9816,0,0,1,4.0812,2.7765,13.7891,13.7891,0,0,1,3.3654,9.508Zm-16.9959-6.7312h8.4136v-4.88a5.2036,5.2036,0,0,0-1.1357-3.66,4.4755,4.4755,0,0,0-6.1423,0,5.2036,5.2036,0,0,0-1.1357,3.66Z"/><path class="cls-2" d="M403.18,52.6227a4.2761,4.2761,0,0,0-1.3881-3.2814,4.5246,4.5246,0,0,0-2.9871-1.0938,3.8372,3.8372,0,0,0-3.1136,1.3044,4.5177,4.5177,0,0,0-1.0935,2.9868,4.9605,4.9605,0,0,0,.5892,2.3138q.5868,1.136,3.0287,2.0614l5.0482,2.02q4.796,1.8516,6.605,5.0482a13.9439,13.9439,0,0,1,1.8092,6.9836,12.8555,12.8555,0,0,1-.9676,5.0063,13.2972,13.2972,0,0,1-2.65,4.0809,12.084,12.084,0,0,1-4.039,2.7765,12.8891,12.8891,0,0,1-5.1325,1.01,12.3721,12.3721,0,0,1-8.75-3.2814,12.024,12.024,0,0,1-2.8606-3.9968A14.2556,14.2556,0,0,1,386.1,70.9652h8.0774a8.1649,8.1649,0,0,0,1.22,3.2814,3.7244,3.7244,0,0,0,3.4076,1.5146,5.0717,5.0717,0,0,0,3.3233-1.22,4.18,4.18,0,0,0,1.4725-3.4076,4.9829,4.9829,0,0,0-.9254-3.029A7.2984,7.2984,0,0,0,399.31,65.917l-4.1228-1.5146a14.0384,14.0384,0,0,1-6.3525-4.5014,11.5174,11.5174,0,0,1-2.3141-7.2783,12.3884,12.3884,0,0,1,1.01-5.0063,12.1858,12.1858,0,0,1,2.7768-3.9965,11.3366,11.3366,0,0,1,3.9541-2.5663,13.3471,13.3471,0,0,1,4.88-.8835,12.5065,12.5065,0,0,1,4.8385.9257,11.09,11.09,0,0,1,3.8281,2.6081,12.4892,12.4892,0,0,1,2.5244,3.9968,13.153,13.153,0,0,1,.9254,4.9219Z"/><path class="cls-2" d="M10.1765,83.3332V23.4256h8.5817V44.5449h.1687a10.3729,10.3729,0,0,1,3.4076-3.24,8.8688,8.8688,0,0,1,4.5011-1.136,9.0361,9.0361,0,0,1,4.8385,1.0938A9.2146,9.2146,0,0,1,34.4925,44.04a8.4989,8.4989,0,0,1,1.0941,3.5338,65.8988,65.8988,0,0,1,.2518,6.8152V70.6281a37.414,37.414,0,0,1-.3362,5.6374,11.4129,11.4129,0,0,1-1.0941,3.5338Q32.22,83.838,26.92,83.838a8.0341,8.0341,0,0,1-4.88-1.2622,21.0363,21.0363,0,0,1-3.2817-3.113v3.87ZM27.2568,53.8a6.8831,6.8831,0,0,0-.8838-3.5338A3.516,3.516,0,0,0,23.05,48.7518a4.0281,4.0281,0,0,0-3.0714,1.3041,4.6726,4.6726,0,0,0-1.22,3.3236V69.9551a5.9309,5.9309,0,0,0,1.1785,3.8281,3.7864,3.7864,0,0,0,3.113,1.4725A3.5032,3.5032,0,0,0,26.247,73.657a7.7823,7.7823,0,0,0,1.01-4.2068Z"/><path class="cls-2" d="M67.7271,65.2431H50.7312v5.8058a4.1185,4.1185,0,0,0,1.1357,3.113,4.2368,4.2368,0,0,0,3.0708,1.0938q2.44,0,3.24-1.43a7.713,7.713,0,0,0,.9676-2.8609h8.5823a12.286,12.286,0,0,1-3.45,9.0872,12.0876,12.0876,0,0,1-4.0384,2.7765,13.334,13.334,0,0,1-5.3012,1.01A13.1445,13.1445,0,0,1,48.08,82.1553a11.3991,11.3991,0,0,1-5.5952-8.33,31.5643,31.5643,0,0,1-.3362-4.796V54.9781a31.5874,31.5874,0,0,1,.3362-4.796,11.398,11.398,0,0,1,5.5952-8.33,13.1533,13.1533,0,0,1,6.8574-1.683,13.6409,13.6409,0,0,1,5.3428,1.01,11.9816,11.9816,0,0,1,4.0812,2.7765,13.7891,13.7891,0,0,1,3.3654,9.508ZM50.7312,58.5119h8.4136v-4.88a5.2036,5.2036,0,0,0-1.1357-3.66,4.4755,4.4755,0,0,0-6.1423,0,5.2036,5.2036,0,0,0-1.1357,3.66Z"/><path class="cls-2" d="M90.2761,83.3332V78.9579H90.108A15.8585,15.8585,0,0,1,86.7,82.5758a8.0728,8.0728,0,0,1-4.8379,1.2622,10.7756,10.7756,0,0,1-3.0714-.4627A7.941,7.941,0,0,1,75.8039,81.65,8.21,8.21,0,0,1,73.49,78.2428a15.846,15.846,0,0,1-.8838-5.7636,30.4013,30.4013,0,0,1,.5892-6.3525,10.1388,10.1388,0,0,1,2.1876-4.5858,9.1489,9.1489,0,0,1,4.1228-2.65,21.0615,21.0615,0,0,1,6.6472-.8835h.9254a4.79,4.79,0,0,1,.9254.0844,5.1862,5.1862,0,0,0,1.01.084,10.448,10.448,0,0,1,1.2622.084V53.8a6.5442,6.5442,0,0,0-.9254-3.6182,3.7051,3.7051,0,0,0-3.3654-1.43,4.85,4.85,0,0,0-3.0714,1.0938,5.193,5.193,0,0,0-1.8086,3.1974h-8.33a13.7149,13.7149,0,0,1,3.87-9.2553A12.1889,12.1889,0,0,1,80.684,41.137a13.8551,13.8551,0,0,1,5.3012-.9676,14.9268,14.9268,0,0,1,5.0482.8414,11.5439,11.5439,0,0,1,4.1228,2.5244,12.3445,12.3445,0,0,1,2.6925,4.2068,15.8011,15.8011,0,0,1,1.01,5.89V83.3332Zm0-18.3425a14.1158,14.1158,0,0,0-2.3557-.2524,8.4391,8.4391,0,0,0-4.7542,1.3044q-1.9776,1.3051-1.9773,4.7539a6.2522,6.2522,0,0,0,1.1778,3.9544,3.9221,3.9221,0,0,0,3.2817,1.5146,4.2352,4.2352,0,0,0,3.4076-1.43,6.0457,6.0457,0,0,0,1.22-4.0387Z"/><path class="cls-2" d="M114.2553,71.0489a4.1187,4.1187,0,0,0,1.1363,3.113,4.2368,4.2368,0,0,0,3.0708,1.0938q2.44,0,3.24-1.43a7.713,7.713,0,0,0,.9676-2.8609h8.5823a12.286,12.286,0,0,1-3.45,9.0872,12.084,12.084,0,0,1-4.039,2.7765,13.331,13.331,0,0,1-5.3006,1.01,13.1445,13.1445,0,0,1-6.8574-1.6827,11.3991,11.3991,0,0,1-5.5952-8.33,31.5606,31.5606,0,0,1-.3368-4.796V54.9781a31.5837,31.5837,0,0,1,.3368-4.796,11.398,11.398,0,0,1,5.5952-8.33,13.1533,13.1533,0,0,1,6.8574-1.683,13.6431,13.6431,0,0,1,5.3428,1.01,11.9816,11.9816,0,0,1,4.0812,2.7765A14.27,14.27,0,0,1,131.2519,53.8H122.67a5.4843,5.4843,0,0,0-1.1357-3.8285,4.4755,4.4755,0,0,0-6.1423,0,5.2037,5.2037,0,0,0-1.1363,3.66Z"/><path class="cls-2" d="M135.2909,83.3332V23.4256h8.5817V44.7971h.1687a12.2006,12.2006,0,0,1,3.2389-3.3233,8.3464,8.3464,0,0,1,4.8385-1.3044,9.8416,9.8416,0,0,1,3.1974.5471,7.4193,7.4193,0,0,1,2.8606,1.8089,9.1262,9.1262,0,0,1,2.02,3.24,13.5857,13.5857,0,0,1,.7567,4.8379v32.73h-8.5817V53.8a5.7162,5.7162,0,0,0-1.0941-3.7022,3.785,3.785,0,0,0-3.113-1.3462,3.6177,3.6177,0,0,0-3.3654,1.5146,8.4552,8.4552,0,0,0-.926,4.3752V83.3332Z"/><rect class="cls-3" x="6.6422" y="90.6464" width="407.7156" height="4.623"/><path class="cls-3" d="M202.3865,82.52h0a4.5078,4.5078,0,0,1-6.12-1.7848l-14.74-26.2132a4.5078,4.5078,0,0,1,1.7848-6.12h0a4.5078,4.5078,0,0,1,6.12,1.7848L204.1713,76.4A4.5078,4.5078,0,0,1,202.3865,82.52Z"/><rect class="cls-3" x="225.5171" y="44.3335" width="9.0157" height="68.7175" rx="3.1731" ry="3.1731" transform="translate(308.7172 -151.3327) rotate(90)"/><path class="cls-3" d="M200.9907,83.2h7.4737a0,0,0,0,1,0,0v7.1086a2.63,2.63,0,0,1-2.63,2.63h-2.213a2.63,2.63,0,0,1-2.63-2.63V83.2a0,0,0,0,1,0,0Z"/><path class="cls-3" d="M252.6562,83.2H260.13a0,0,0,0,1,0,0v7.1086a2.63,2.63,0,0,1-2.63,2.63h-2.213a2.63,2.63,0,0,1-2.63-2.63V83.2a0,0,0,0,1,0,0Z"/><rect class="cls-3" x="194.2217" y="59.0157" width="60.2078" height="4.8134" transform="translate(201.0137 292.8338) rotate(-99.5603)"/><path class="cls-3" d="M195.3714,33.5687c11.3851-1.9175,21.5283-.5352,25.4686,3.0622,2.5446-4.69,11.6753-9.3181,23.06-11.2357,9.5423-1.6072,18.2112-.8958,23.088,1.4944C263.3265,10.3724,240.3108.5362,214.81,4.8311c-26.0441,4.3865-44.8146,21.8505-41.925,39.007l.0091.0481C176.06,39.5213,184.73,35.3609,195.3714,33.5687Z"/><rect class="cls-3" x="212.1407" y="1.9519" width="4.8407" height="2.9895" rx="1.0522" ry="1.0522" transform="translate(2.4075 35.6835) rotate(-9.5603)"/><g class="cls-4"><image width="3984" height="2656" transform="translate(-10.1631 -221.8877) scale(0.4854)" xlink:href="../../../../../FOTOS/Originales/Villa del Palmar Pto Vallarta/Villa-del-Palmar-Puerto-Vallarta-Beach-6-.jpg"/></g></svg>