<svg xmlns="http://www.w3.org/2000/svg" xmlns:xlink="http://www.w3.org/1999/xlink" viewBox="0 0 252.93 43.05"><defs><style>.cls-1{fill:url(#linear-gradient);}.cls-2{font-size:22.05px;fill:#38241e;font-family:Baskerville-Bold, Baskerville;font-weight:700;}</style><linearGradient id="linear-gradient" x1="-203.18" y1="51.01" x2="-1.14" y2="51.01" gradientTransform="translate(254.36 -29.48) scale(1.25 1)" gradientUnits="userSpaceOnUse"><stop offset="0" stop-color="#eeb867"/><stop offset="1" stop-color="#cc9c42"/></linearGradient></defs><g id="txt_2"><path class="cls-1" d="M9.6,38.06c4.74-.13,4.76-.13,6.21.44a7.64,7.64,0,0,0,1.78.53,10.08,10.08,0,0,1,2.12.71c1.82.76,2.18,1.42,1,1.87-1.86.72.61,1.74,3.27,1.35a27,27,0,0,1,3.23-.17,107.58,107.58,0,0,0,10.91-.61,3.82,3.82,0,0,1,1.24-.1c.22.09,6.36-.24,11.77-.62,2.44-.17,14.22-.71,17.58-.8,1.85,0,6-.23,9.34-.39s9.11-.38,12.93-.49,9.39-.29,12.38-.39,9.51-.25,14.48-.31,11-.17,13.43-.23,16.37-.09,31-.05c53.11.14,73.39.09,78.36-.21,4.14-.25,4.86-.35,6.58-1,2.4-.88,3.32-1.83,2.36-2.42-.56-.35-.55-.45.07-.6.77-.19.73-.28-1-2.52-.64-.82-.64-.82.69-1a14.63,14.63,0,0,0,2.4-.53c1.12-.36,1.23-.55,1.2-2a7.72,7.72,0,0,0-4.71-7.31c-1.23-.51-1.52-.86-2-2.46a11.35,11.35,0,0,0-4-5.85l-1.69-1.4-4.07-.36c-2.24-.2-5.23-.46-6.65-.57-4.85-.4-6-.78-6-2.05a1.85,1.85,0,0,0-.77-1c-.43-.31-.78-.72-.78-.91s-.58-.76-1.3-1.28a5.58,5.58,0,0,1-1.29-1.11c0-.35-2.35-1.54-3.61-1.83a46.59,46.59,0,0,0-5.44-.43c-2.27-.07-8.09-.35-12.92-.61C179,.32,155-.21,140.86.08L122.5.43c-6.4.12-16.87.45-23.27.72s-12.92.55-14.48.6c-3.39.12-8.78.39-13.54.68-1.9.11-5.28.29-7.5.39-7.12.34-14.8.8-18.52,1.1-8.91.73-12.61,1-15.28,1.06S27,5,26.41,4.53c-.34-.29-.5-.61-.34-.7.4-.25-2.34-1.88-2.81-1.67a6.16,6.16,0,0,0-2.36,2.7l-.32.93-3.31.13C15.44,6,12.65,6,11.06,6,7.58,6,6.36,6.27,5.87,7.37A5,5,0,0,1,4.74,8.81,3.61,3.61,0,0,0,3.65,12.6c.53,1.58,0,4-1,4.46S1,21,1.5,22.1A9.36,9.36,0,0,1,2,23.32a7.86,7.86,0,0,0,1.91,1.17l1.89,1,2.64-.14c8-.4,15.08-.67,15.43-.58a.51.51,0,0,1,.4.44c0,.19.25.44.56.56.81.31-2.76.75-9.51,1.16C10.16,27.2,4,27.94,2.88,28.38c-.41.15-1,.93-1.62,2.31a3.74,3.74,0,0,1-.72.89c-.7.66-.72,1-.07,1s.35.81-.24,1.18c-.17.11-.09.24.17.31s.39.45.28.86c-.22.86.86,1.9,2.82,2.71C4.85,38.2,4.87,38.2,9.6,38.06Z"/><text class="cls-2" transform="translate(20.44 28.93)">Cruz de Huanacaxtle </text></g></svg>