<svg xmlns="http://www.w3.org/2000/svg" xmlns:xlink="http://www.w3.org/1999/xlink" viewBox="0 0 185.63 43.69"><defs><style>.cls-1{fill:url(#linear-gradient);}.cls-2{font-size:22.05px;fill:#38241e;font-family:Baskerville-Bold, Baskerville;font-weight:700;}.cls-3{letter-spacing:-0.01em;}.cls-4{letter-spacing:-0.02em;}.cls-5{letter-spacing:-0.1em;}</style><linearGradient id="linear-gradient" x1="-200.96" y1="-2.76" x2="-52.67" y2="-2.76" gradientTransform="matrix(1.25, 0.06, -0.05, 1, 251.69, 32.79)" gradientUnits="userSpaceOnUse"><stop offset="0" stop-color="#eeb867"/><stop offset="1" stop-color="#cc9c42"/></linearGradient></defs><g id="txt_2"><path class="cls-1" d="M6.78,35.42c3.48,0,3.49,0,4.53.64a4.39,4.39,0,0,0,1.28.59,5.91,5.91,0,0,1,1.53.78c1.3.82,1.53,1.49.65,1.91-1.4.65.37,1.76,2.34,1.46a14.7,14.7,0,0,1,2.38-.07,60.08,60.08,0,0,0,8-.24,2.07,2.07,0,0,1,.92-.06c.15.09,4.67,0,8.65-.23C38.88,40.11,47.54,40,50,40c1.36,0,4.45,0,6.87-.08s6.69-.08,9.5-.06,6.9,0,9.09,0,7,.07,10.63.18,8.09.2,9.86.21,12,.46,22.75,1c38.94,1.92,53.81,2.54,57.46,2.41,3.05-.11,3.58-.19,4.87-.76,1.8-.8,2.52-1.71,1.85-2.34-.4-.37-.39-.47.07-.6s.55-.25-.64-2.55c-.44-.84-.44-.84.54-.94a7.66,7.66,0,0,0,1.79-.44c.83-.33.92-.51,1-2,.12-3.38-1.05-6.17-3.12-7.46-.88-.55-1.07-.91-1.36-2.52a12.07,12.07,0,0,0-2.66-6l-1.17-1.46-3-.49c-1.63-.28-3.82-.63-4.86-.8-3.53-.55-4.32-1-4.26-2.25A2,2,0,0,0,164.7,12a1.88,1.88,0,0,1-.53-.93,3.49,3.49,0,0,0-.89-1.32,5.43,5.43,0,0,1-.9-1.15c0-.36-1.65-1.62-2.56-1.95a24.22,24.22,0,0,0-4-.61c-1.67-.16-5.92-.63-9.45-1-13.67-1.63-31.26-3-41.65-3.15L91.27,1.6c-4.7-.09-12.39-.12-17.09-.06s-9.5.12-10.65.12c-2.49,0-6.45.09-10,.22-1.4.05-3.89.11-5.52.15-5.24.1-10.89.29-13.63.47-6.57.44-9.29.57-11.25.55S21,3,20.63,2.49c-.23-.31-.34-.63-.22-.72.31-.24-1.63-1.95-2-1.75a5.91,5.91,0,0,0-1.86,2.61l-.27.91-2.44,0c-1.34,0-3.39,0-4.55-.12-2.55-.18-3.46.1-3.87,1.18A5,5,0,0,1,4.55,6a4.49,4.49,0,0,0-1,3.75c.32,1.59-.18,4-.93,4.41s-1.4,3.86-1.07,5a10.45,10.45,0,0,1,.29,1.23,5.94,5.94,0,0,0,1.35,1.23l1.34,1,1.94-.05c5.88-.13,11.09-.16,11.34-.07a.49.49,0,0,1,.28.46.75.75,0,0,0,.38.58c.58.34-2,.65-7,.84-3.79.14-8.33.67-9.18,1.07-.31.14-.74.9-1.29,2.25a4,4,0,0,1-.57.88c-.54.63-.57,1-.1,1s.23.82-.23,1.17c-.12.1-.07.24.12.31s.26.46.16.87c-.2.86.54,1.93,1.94,2.8C3.29,35.4,3.3,35.4,6.78,35.42Z"/><text class="cls-2" transform="translate(16.96 29)">Nu<tspan class="cls-3" x="30.55" y="0">e</tspan><tspan class="cls-4" x="41.82" y="0">v</tspan><tspan x="52.65" y="0">o </tspan><tspan class="cls-5" x="70.57" y="0">V</tspan><tspan x="83.94" y="0">alla</tspan><tspan class="cls-3" x="122.53" y="0">r</tspan><tspan x="132.87" y="0">ta </tspan></text></g></svg>