<svg xmlns="http://www.w3.org/2000/svg" xmlns:xlink="http://www.w3.org/1999/xlink" viewBox="0 0 168.13 39.57"><defs><style>.cls-1{fill:url(#linear-gradient);}.cls-2{font-size:22.05px;fill:#38241e;font-family:Baskerville-Bold, Baskerville;font-weight:700;}.cls-3{letter-spacing:-0.01em;}</style><linearGradient id="linear-gradient" x1="-180.91" y1="-5.54" x2="-46.6" y2="-5.54" gradientTransform="matrix(1.25, 0.06, -0.05, 1, 226.44, 32.67)" gradientUnits="userSpaceOnUse"><stop offset="0" stop-color="#eeb867"/><stop offset="1" stop-color="#cc9c42"/></linearGradient></defs><g id="txt_2"><path class="cls-1" d="M6.14,32.08c3.15,0,3.16,0,4.11.58a3.63,3.63,0,0,0,1.16.53,5.57,5.57,0,0,1,1.37.71c1.18.74,1.39,1.35.6,1.73-1.27.59.33,1.59,2.11,1.32a13.32,13.32,0,0,1,2.16-.06,52.65,52.65,0,0,0,7.26-.22,1.82,1.82,0,0,1,.84-.05c.14.08,4.22,0,7.83-.21,1.63-.08,9.48-.21,11.71-.19,1.23,0,4,0,6.22-.07s6.07-.07,8.61-.06,6.25,0,8.24,0,6.32.06,9.62.16,7.33.18,8.93.19,10.88.42,20.61.9c35.26,1.74,48.73,2.3,52,2.18,2.76-.1,3.24-.17,4.41-.69,1.63-.72,2.28-1.55,1.67-2.12-.36-.33-.35-.42.07-.54s.5-.22-.58-2.31c-.4-.76-.4-.76.49-.85a7.15,7.15,0,0,0,1.61-.4c.76-.3.85-.46.89-1.81.1-3.06-1-5.59-2.83-6.76-.8-.5-1-.82-1.23-2.28a11,11,0,0,0-2.41-5.42l-1.06-1.31-2.69-.46c-1.48-.24-3.46-.57-4.4-.71-3.2-.51-3.91-.88-3.86-2a1.74,1.74,0,0,0-.47-1,1.74,1.74,0,0,1-.48-.85,3.24,3.24,0,0,0-.81-1.19,4.68,4.68,0,0,1-.81-1c0-.32-1.5-1.46-2.32-1.76a22.35,22.35,0,0,0-3.6-.56c-1.51-.13-5.36-.56-8.56-.94-12.37-1.48-28.31-2.69-37.72-2.85L82.66,1.45c-4.25-.08-11.22-.11-15.48-.05s-8.6.1-9.64.1c-2.25,0-5.84.09-9,.2-1.26.05-3.51.11-5,.13-4.74.09-9.86.27-12.35.44-5.95.39-8.41.51-10.19.5s-1.93,0-2.3-.52c-.22-.27-.31-.56-.2-.65C18.76,1.39,17-.16,16.69,0A5.47,5.47,0,0,0,15,2.38l-.25.83-2.2,0c-1.22,0-3.07,0-4.13-.11C6.12,3,5.3,3.21,4.93,4.19a4.52,4.52,0,0,1-.81,1.28,4.05,4.05,0,0,0-.88,3.4c.29,1.44-.17,3.61-.85,4s-1.26,3.49-1,4.53c.14.51.26,1,.27,1.12a5.12,5.12,0,0,0,1.22,1.12l1.21.92,1.76,0c5.32-.12,10.05-.15,10.27-.07a.44.44,0,0,1,.25.42.67.67,0,0,0,.35.52c.52.31-1.86.6-6.36.76-3.43.13-7.54.61-8.32,1a4.76,4.76,0,0,0-1.16,2,3.24,3.24,0,0,1-.52.79c-.49.58-.52.89-.09.91s.2.74-.21,1.06C0,28,0,28.12.2,28.19s.23.42.15.78c-.18.78.49,1.75,1.75,2.54C3,32.06,3,32.06,6.14,32.08Z"/><text class="cls-2" transform="translate(27.91 29.22)">Mismal<tspan class="cls-3" x="80.17" y="0">oy</tspan><tspan x="103.86" y="0">a</tspan></text></g></svg>