<svg xmlns="http://www.w3.org/2000/svg" xmlns:xlink="http://www.w3.org/1999/xlink" viewBox="0 0 192.58 57.15"><defs><style>.cls-1{fill:url(#linear-gradient);}.cls-2{font-size:22.05px;fill:#38241e;font-family:Baskerville-Bold, Baskerville;font-weight:700;}</style><linearGradient id="linear-gradient" x1="-236.25" y1="-41.78" x2="-87.35" y2="-41.78" gradientTransform="matrix(1.25, 0.06, -0.05, 1, 296.45, 80.27)" gradientUnits="userSpaceOnUse"><stop offset="0" stop-color="#eeb867"/><stop offset="1" stop-color="#cc9c42"/></linearGradient></defs><g id="txt_2"><path class="cls-1" d="M9.16,44.62c3.49,0,3.51,0,4.54.75a3.92,3.92,0,0,0,1.28.72A5.43,5.43,0,0,1,16.5,47c1.29,1,1.52,1.82.63,2.32-1.41.82.35,2.15,2.33,1.77A11.9,11.9,0,0,1,21.85,51a50.15,50.15,0,0,0,8.06-.35,1.66,1.66,0,0,1,.92-.08c.16.11,4.69-.06,8.7-.33,1.81-.12,10.51-.36,13-.35,1.36,0,4.47-.06,6.9-.14s6.73-.14,9.55-.13,6.93,0,9.14,0,7,0,10.67.14,8.12.2,9.9.2,12.06.49,22.84,1.06c39.09,2.09,54,2.76,57.7,2.57,3.07-.15,3.6-.26,4.9-1,1.82-1,2.56-2.11,1.89-2.87-.4-.45-.38-.57.08-.73s.56-.31-.61-3.11c-.43-1-.43-1,.56-1.16a7.51,7.51,0,0,0,1.8-.55c.84-.41.94-.63,1-2.45.16-4.12-1-7.53-3-9.1-.88-.67-1.07-1.1-1.33-3.07a16.36,16.36,0,0,0-2.59-7.29l-1.16-1.77-3-.58c-1.64-.33-3.82-.75-4.87-.94-3.54-.66-4.33-1.16-4.25-2.72a2.45,2.45,0,0,0-.51-1.29,2.51,2.51,0,0,1-.51-1.14,4.57,4.57,0,0,0-.88-1.61,6.66,6.66,0,0,1-.89-1.4c0-.43-1.64-2-2.55-2.36a20.1,20.1,0,0,0-4-.73c-1.67-.17-5.94-.72-9.48-1.21A399.6,399.6,0,0,0,108.05,3L94.51,2.75c-4.71-.09-12.44-.07-17.17,0S67.8,3,66.65,3c-2.5,0-6.49.16-10,.33-1.41.07-3.9.17-5.54.22-5.27.15-11,.43-13.7.67-6.61.57-9.34.75-11.32.75s-2.14,0-2.55-.68c-.23-.37-.32-.76-.2-.87.3-.29-1.62-2.38-2-2.13a7.41,7.41,0,0,0-1.9,3.2l-.29,1.12-2.45,0c-1.35,0-3.4,0-4.57-.12-2.56-.2-3.48.14-3.9,1.47a6.82,6.82,0,0,1-.92,1.72,6.41,6.41,0,0,0-1,4.6c.3,1.94-.25,4.87-1,5.4s-1.45,4.71-1.14,6.11c.15.68.27,1.36.28,1.51a6.33,6.33,0,0,0,1.34,1.5L7.1,29.08l2-.07c5.91-.2,11.14-.27,11.39-.16a.61.61,0,0,1,.27.56,1,1,0,0,0,.38.71c.58.41-2.08.81-7.07,1.07-3.81.19-8.37.87-9.23,1.36-.32.18-.76,1.11-1.33,2.77a5.09,5.09,0,0,1-.59,1.07c-.55.77-.59,1.19-.11,1.21S3,38.6,2.52,39c-.13.12-.08.29.1.37s.26.56.16,1.06c-.21,1.05.52,2.35,1.91,3.41C5.65,44.62,5.66,44.62,9.16,44.62Z"/><text class="cls-2" transform="translate(20.67 34.85)">One and Only</text></g></svg>