<svg xmlns="http://www.w3.org/2000/svg" xmlns:xlink="http://www.w3.org/1999/xlink" viewBox="0 0 186.82 55.73"><defs><style>.cls-1{fill:url(#linear-gradient);}.cls-2{font-size:22.05px;fill:#38241e;font-family:Baskerville-Bold, Baskerville;font-weight:700;}.cls-3{letter-spacing:-0.01em;}.cls-4{letter-spacing:-0.1em;}.cls-5{letter-spacing:-0.01em;}</style><linearGradient id="linear-gradient" x1="-109.34" y1="-58.07" x2="52.75" y2="-58.07" gradientTransform="matrix(1.15, 0.05, -0.05, 1, 123.88, 88.68)" gradientUnits="userSpaceOnUse"><stop offset="0" stop-color="#eeb867"/><stop offset="1" stop-color="#cc9c42"/></linearGradient></defs><g id="txt_2"><path class="cls-1" d="M6.74,47.29c3.5,0,3.52,0,4.55.78a3.76,3.76,0,0,0,1.29.76,5.71,5.71,0,0,1,1.52,1c1.29,1.07,1.52,2,.63,2.52-1.42.9.34,2.34,2.33,1.91a10.5,10.5,0,0,1,2.4-.12,45.71,45.71,0,0,0,8.07-.45,1.55,1.55,0,0,1,.93-.09,87.16,87.16,0,0,0,8.72-.43c1.81-.15,10.53-.47,13-.48,1.37,0,4.48-.1,6.92-.21s6.74-.21,9.56-.22,7-.07,9.16-.11,7,0,10.7.08,8.14.14,9.92.13,12.08.43,22.89,1c39.17,2,54.13,2.57,57.81,2.34,3.07-.19,3.61-.31,4.92-1.09,1.82-1.09,2.56-2.32,1.88-3.14-.39-.49-.38-.62.09-.79s.55-.34-.61-3.39C183,46.17,183,46.17,184,46a6.61,6.61,0,0,0,1.8-.61c.85-.45.94-.7,1-2.68.17-4.49-1-8.19-3-9.87-.88-.72-1.07-1.2-1.33-3.33a18.45,18.45,0,0,0-2.59-7.92l-1.16-1.91-3-.62c-1.64-.34-3.84-.78-4.88-1-3.55-.68-4.34-1.23-4.26-2.93a3,3,0,0,0-.51-1.4,2.77,2.77,0,0,1-.52-1.23,4.88,4.88,0,0,0-.88-1.75,6.52,6.52,0,0,1-.88-1.52c0-.46-1.65-2.13-2.56-2.55a18.63,18.63,0,0,0-4-.75c-1.68-.18-5.95-.74-9.5-1.25a368,368,0,0,0-41.89-3.55L92.28,1c-4.73-.06-12.47,0-17.21.18l-10.72.32c-2.5,0-6.49.22-10,.44-1.41.08-3.91.21-5.56.28-5.27.21-11,.56-13.73.84-6.62.67-9.36.89-11.34.9s-2.14,0-2.55-.71c-.23-.4-.33-.83-.21-.95C21.25,2,19.33-.24,19,0a8.39,8.39,0,0,0-1.9,3.51l-.29,1.22-2.46.07c-1.34,0-3.41,0-4.58-.1-2.56-.19-3.49.19-3.91,1.64a7.45,7.45,0,0,1-.92,1.88,7.49,7.49,0,0,0-1,5c.3,2.11-.25,5.3-1,5.88S1.41,24.27,1.72,25.8A16.53,16.53,0,0,1,2,27.44a6.83,6.83,0,0,0,1.35,1.62l1.33,1.33,2-.09C12.55,30,17.8,29.91,18.05,30a.68.68,0,0,1,.27.6,1,1,0,0,0,.38.77c.58.44-2.08.9-7.08,1.22-3.82.25-8.4,1-9.26,1.57-.31.19-.76,1.21-1.33,3a5.75,5.75,0,0,1-.58,1.17c-.56.85-.6,1.3-.12,1.33s.22,1.09-.24,1.56a.24.24,0,0,0,.1.41c.19.09.26.61.16,1.15-.21,1.14.52,2.55,1.91,3.7C3.23,47.31,3.24,47.31,6.74,47.29Z"/><text class="cls-2" transform="translate(20.39 24.7)">Downtown <tspan x="0" y="20">Pue</tspan><tspan class="cls-3" x="38.81" y="20">r</tspan><tspan x="49.16" y="20">to </tspan><tspan class="cls-4" x="75.12" y="20">V</tspan><tspan x="88.49" y="20">alla</tspan><tspan class="cls-5" x="127.08" y="20">r</tspan><tspan x="137.43" y="20">ta </tspan></text></g></svg>