<svg xmlns="http://www.w3.org/2000/svg" xmlns:xlink="http://www.w3.org/1999/xlink" viewBox="0 0 152.5 43.05"><defs><style>.cls-1{fill:url(#linear-gradient);}.cls-2{font-size:22.05px;fill:#38241e;font-family:Baskerville-Bold, Baskerville;font-weight:700;}.cls-3{letter-spacing:0.04em;}.cls-4{letter-spacing:-0.01em;}</style><linearGradient id="linear-gradient" x1="-210.06" y1="51.01" x2="-88.24" y2="51.01" gradientTransform="translate(262.97 -29.48) scale(1.25 1)" gradientUnits="userSpaceOnUse"><stop offset="0" stop-color="#eeb867"/><stop offset="1" stop-color="#cc9c42"/></linearGradient></defs><g id="txt_2"><path class="cls-1" d="M5.79,38.06c2.86-.13,2.87-.13,3.74.44a3.43,3.43,0,0,0,1.08.53,4.65,4.65,0,0,1,1.27.71c1.1.76,1.32,1.42.62,1.87-1.13.72.36,1.74,2,1.35a10,10,0,0,1,1.95-.17A39.46,39.46,0,0,0,23,42.18a1.42,1.42,0,0,1,.75-.1c.13.09,3.83-.24,7.09-.62,1.48-.17,8.58-.71,10.6-.8,1.12,0,3.65-.23,5.64-.39s5.49-.38,7.79-.49,5.67-.29,7.47-.39,5.73-.25,8.73-.31,6.64-.17,8.09-.23,9.88-.09,18.71-.05c32,.14,44.25.09,47.24-.21,2.51-.25,2.94-.35,4-1,1.45-.88,2-1.83,1.43-2.42-.34-.35-.33-.45,0-.6s.44-.28-.62-2.52c-.39-.82-.39-.82.41-1a6,6,0,0,0,1.44-.53c.68-.36.75-.55.73-2,0-3.38-1.1-6.12-2.84-7.31-.74-.51-.92-.86-1.21-2.46A13.13,13.13,0,0,0,146,12.92l-1-1.4-2.45-.36c-1.35-.2-3.16-.46-4-.57-2.92-.4-3.59-.78-3.59-2.05a2.13,2.13,0,0,0-.46-1,2,2,0,0,1-.47-.91,3.63,3.63,0,0,0-.78-1.28,4.76,4.76,0,0,1-.78-1.11c0-.35-1.42-1.54-2.18-1.83A17.35,17.35,0,0,0,127,1.94c-1.37-.07-4.88-.35-7.79-.61A326.52,326.52,0,0,0,84.93.08L73.86.43c-3.86.12-10.17.45-14,.72s-7.79.55-8.73.6c-2,.12-5.29.39-8.16.68-1.15.11-3.18.29-4.53.39-4.29.34-8.92.8-11.16,1.1-5.38.73-7.6,1-9.22,1.06s-1.75,0-2.11-.45c-.2-.29-.3-.61-.2-.7C16,3.58,14.31,2,14,2.16a6.18,6.18,0,0,0-1.43,2.7l-.19.93-2,.13C9.31,6,7.63,6,6.67,6,4.57,6,3.83,6.27,3.54,7.37a5.72,5.72,0,0,1-.68,1.44A5.21,5.21,0,0,0,2.2,12.6c.32,1.58,0,4-.61,4.46S.6,21,.9,22.1c.15.55.28,1.1.3,1.22a5,5,0,0,0,1.15,1.17l1.13,1,1.6-.14c4.81-.4,9.09-.67,9.3-.58a.49.49,0,0,1,.24.44.76.76,0,0,0,.34.56c.49.31-1.66.75-5.73,1.16-3.11.31-6.81,1.05-7.5,1.49a5.63,5.63,0,0,0-1,2.31,4.21,4.21,0,0,1-.43.89c-.42.66-.44,1,0,1s.22.81-.14,1.18c-.1.11-.06.24.1.31s.24.45.17.86c-.13.86.52,1.9,1.7,2.71C2.93,38.2,2.93,38.2,5.79,38.06Z"/><text class="cls-2" transform="translate(19.06 29.04)"><tspan class="cls-3">F</tspan><tspan x="13.66" y="0">lamin</tspan><tspan class="cls-4" x="74.77" y="0">g</tspan><tspan x="86.49" y="0">os </tspan></text></g></svg>