<?xml version="1.0" standalone="no"?>
<!DOCTYPE svg PUBLIC "-//W3C//DTD SVG 1.1//EN" "http://www.w3.org/Graphics/SVG/1.1/DTD/svg11.dtd" >
<svg xmlns="http://www.w3.org/2000/svg">
<metadata></metadata>
<defs>
<font id="bm_receipta11" horiz-adv-x="1675" >
<font-face units-per-em="2048" ascent="1676" descent="-372" />
<missing-glyph horiz-adv-x="1303" />
<glyph horiz-adv-x="0" />
<glyph unicode="&#xd;" horiz-adv-x="1303" />
<glyph unicode=" "  horiz-adv-x="1303" />
<glyph unicode="&#x09;" horiz-adv-x="1303" />
<glyph unicode="&#xa0;" horiz-adv-x="1303" />
<glyph unicode="!" horiz-adv-x="558" d="M2 2v180h182v-180h-182zM2 747v180h182v-180h-182zM2 1119v181h182v-181h-182zM2 1491v181h182v-181h-182z" />
<glyph unicode="&#x22;" horiz-adv-x="1117" d="M2 1119v181h182v-181h-182zM2 1491v181h182v-181h-182zM560 1119v181h183v-181h-183zM560 1491v181h183v-181h-183z" />
<glyph unicode="#" horiz-adv-x="2048" d="M2 374v181h182v-181h-182zM2 1119v181h182v-181h-182zM374 2v180h183v-180h-183zM374 374v181h183v-181h-183zM374 747v180h183v-180h-183zM374 1119v181h183v-181h-183zM374 1491v181h183v-181h-183zM747 374v181h182v-181h-182zM747 1119v181h182v-181h-182zM1119 2 v180h182v-180h-182zM1119 374v181h182v-181h-182zM1119 747v180h182v-180h-182zM1119 1119v181h182v-181h-182zM1119 1491v181h182v-181h-182zM1491 374v181h183v-181h-183zM1491 1119v181h183v-181h-183z" />
<glyph unicode="%" horiz-adv-x="2048" d="M2 2v180h182v-180h-182zM2 1119v181h182v-181h-182zM2 1491v181h182v-181h-182zM374 374v181h183v-181h-183zM374 1119v181h183v-181h-183zM374 1491v181h183v-181h-183zM747 747v180h182v-180h-182zM1119 2v180h182v-180h-182zM1119 374v181h182v-181h-182zM1119 1119 v181h182v-181h-182zM1491 2v180h183v-180h-183zM1491 374v181h183v-181h-183zM1491 1491v181h183v-181h-183z" />
<glyph unicode="&#x26;" d="M2 2v180h182v-180h-182zM2 374v181h182v-181h-182zM2 747v180h182v-180h-182zM374 2v180h183v-180h-183zM374 747v180h183v-180h-183zM374 1119v181h183v-181h-183zM374 1491v181h183v-181h-183zM747 2v180h182v-180h-182zM747 -190h182v-181h-182v181zM747 374v181h182 v-181h-182zM747 747v180h182v-180h-182zM747 1491v181h182v-181h-182zM1119 2v180h182v-180h-182zM1119 747v180h182v-180h-182zM1119 1119v181h182v-181h-182zM1119 1491v181h182v-181h-182z" />
<glyph unicode="'" horiz-adv-x="558" d="M2 1119v181h182v-181h-182zM2 1491v181h182v-181h-182z" />
<glyph unicode="(" horiz-adv-x="930" d="M2 374v181h182v-181h-182zM2 747v180h182v-180h-182zM2 1119v181h182v-181h-182zM374 2v180h183v-180h-183zM374 1491v181h183v-181h-183z" />
<glyph unicode=")" horiz-adv-x="930" d="M2 2v180h182v-180h-182zM2 1491v181h182v-181h-182zM374 374v181h183v-181h-183zM374 747v180h183v-180h-183zM374 1119v181h183v-181h-183z" />
<glyph unicode="*" horiz-adv-x="1303" d="M2 747v180h182v-180h-182zM2 1491v181h182v-181h-182zM374 1119v181h183v-181h-183zM747 747v180h182v-180h-182zM747 1491v181h182v-181h-182z" />
<glyph unicode="+" d="M2 747v180h182v-180h-182zM374 747v180h183v-180h-183zM560 2v180h183v-180h-183zM560 374v181h183v-181h-183zM560 1119v181h183v-181h-183zM560 1491v181h183v-181h-183zM747 747v180h182v-180h-182zM1119 747v180h182v-180h-182z" />
<glyph unicode="," horiz-adv-x="558" d="M2 2v180h182v-180h-182zM2 -190h182v-181h-182v181z" />
<glyph unicode="-" d="M2 747v180h182v-180h-182zM374 747v180h183v-180h-183zM747 747v180h182v-180h-182zM1119 747v180h182v-180h-182z" />
<glyph unicode="." horiz-adv-x="558" d="M2 2v180h182v-180h-182z" />
<glyph unicode="/" horiz-adv-x="2048" d="M2 2v180h182v-180h-182zM374 374v181h183v-181h-183zM747 747v180h182v-180h-182zM1119 1119v181h182v-181h-182zM1491 1491v181h183v-181h-183z" />
<glyph unicode="0" d="M2 374v181h182v-181h-182zM2 747v180h182v-180h-182zM2 1119v181h182v-181h-182zM374 2v180h183v-180h-183zM374 933v180h183v-180h-183zM374 1491v181h183v-181h-183zM747 2v180h182v-180h-182zM747 560v181h182v-181h-182zM747 1491v181h182v-181h-182zM1119 374v181 h182v-181h-182zM1119 747v180h182v-180h-182zM1119 1119v181h182v-181h-182z" />
<glyph unicode="1" horiz-adv-x="930" d="M2 1119v181h182v-181h-182zM374 2v180h183v-180h-183zM374 374v181h183v-181h-183zM374 747v180h183v-180h-183zM374 1119v181h183v-181h-183zM374 1491v181h183v-181h-183z" />
<glyph unicode="2" d="M2 2v180h182v-180h-182zM2 374v181h182v-181h-182zM2 1305v181h182v-181h-182zM374 2v180h183v-180h-183zM374 747v180h183v-180h-183zM374 1491v181h183v-181h-183zM747 2v180h182v-180h-182zM747 747v180h182v-180h-182zM747 1491v181h182v-181h-182zM1119 2v180h182 v-180h-182zM1119 933v180h182v-180h-182zM1119 1305v181h182v-181h-182z" />
<glyph unicode="3" d="M2 2v180h182v-180h-182zM2 1491v181h182v-181h-182zM374 2v180h183v-180h-183zM374 747v180h183v-180h-183zM374 1491v181h183v-181h-183zM747 2v180h182v-180h-182zM747 747v180h182v-180h-182zM747 1491v181h182v-181h-182zM1119 374v181h182v-181h-182zM1119 1119v181 h182v-181h-182z" />
<glyph unicode="4" d="M2 747v180h182v-180h-182zM2 1119v181h182v-181h-182zM2 1491v181h182v-181h-182zM374 747v180h183v-180h-183zM747 747v180h182v-180h-182zM1119 2v180h182v-180h-182zM1119 374v181h182v-181h-182zM1119 747v180h182v-180h-182zM1119 1119v181h182v-181h-182z M1119 1491v181h182v-181h-182z" />
<glyph unicode="5" d="M2 2v180h182v-180h-182zM2 747v180h182v-180h-182zM2 1119v181h182v-181h-182zM2 1491v181h182v-181h-182zM374 2v180h183v-180h-183zM374 747v180h183v-180h-183zM374 1491v181h183v-181h-183zM747 2v180h182v-180h-182zM747 747v180h182v-180h-182zM747 1491v181h182 v-181h-182zM1119 188v181h182v-181h-182zM1119 560v181h182v-181h-182zM1119 1491v181h182v-181h-182z" />
<glyph unicode="6" d="M2 374v181h182v-181h-182zM2 747v180h182v-180h-182zM2 1119v181h182v-181h-182zM374 2v180h183v-180h-183zM374 747v180h183v-180h-183zM374 1491v181h183v-181h-183zM747 2v180h182v-180h-182zM747 747v180h182v-180h-182zM747 1491v181h182v-181h-182zM1119 374v181 h182v-181h-182zM1119 747v180h182v-180h-182zM1119 1491v181h182v-181h-182z" />
<glyph unicode="7" d="M2 1119v181h182v-181h-182zM2 1491v181h182v-181h-182zM374 1491v181h183v-181h-183zM747 2v180h182v-180h-182zM747 374v181h182v-181h-182zM747 747v180h182v-180h-182zM747 1491v181h182v-181h-182zM1119 1119v181h182v-181h-182zM1119 1491v181h182v-181h-182z" />
<glyph unicode="8" d="M2 188v181h182v-181h-182zM2 560v181h182v-181h-182zM2 933v180h182v-180h-182zM2 1305v181h182v-181h-182zM374 2v180h183v-180h-183zM374 747v180h183v-180h-183zM374 1491v181h183v-181h-183zM747 2v180h182v-180h-182zM747 747v180h182v-180h-182zM747 1491v181h182 v-181h-182zM1119 188v181h182v-181h-182zM1119 560v181h182v-181h-182zM1119 933v180h182v-180h-182zM1119 1305v181h182v-181h-182z" />
<glyph unicode="9" d="M2 2v180h182v-180h-182zM2 747v180h182v-180h-182zM2 1119v181h182v-181h-182zM374 2v180h183v-180h-183zM374 747v180h183v-180h-183zM374 1491v181h183v-181h-183zM747 2v180h182v-180h-182zM747 747v180h182v-180h-182zM747 1491v181h182v-181h-182zM1119 374v181h182 v-181h-182zM1119 747v180h182v-180h-182zM1119 1119v181h182v-181h-182z" />
<glyph unicode=":" horiz-adv-x="558" d="M2 374v181h182v-181h-182zM2 1119v181h182v-181h-182z" />
<glyph unicode=";" horiz-adv-x="558" d="M2 2v180h182v-180h-182zM2 374v181h182v-181h-182zM2 1119v181h182v-181h-182z" />
<glyph unicode="&#x3c;" horiz-adv-x="930" d="M2 560v181h182v-181h-182zM374 188v181h183v-181h-183zM374 933v180h183v-180h-183z" />
<glyph unicode="=" d="M2 374v181h182v-181h-182zM2 1119v181h182v-181h-182zM374 374v181h183v-181h-183zM374 1119v181h183v-181h-183zM747 374v181h182v-181h-182zM747 1119v181h182v-181h-182zM1119 374v181h182v-181h-182zM1119 1119v181h182v-181h-182z" />
<glyph unicode="&#x3e;" horiz-adv-x="930" d="M2 188v181h182v-181h-182zM2 933v180h182v-180h-182zM374 560v181h183v-181h-183z" />
<glyph unicode="?" d="M2 1491v181h182v-181h-182zM374 2v180h183v-180h-183zM374 747v180h183v-180h-183zM374 1491v181h183v-181h-183zM747 747v180h182v-180h-182zM747 1491v181h182v-181h-182zM1119 747v180h182v-180h-182zM1119 1119v181h182v-181h-182zM1119 1491v181h182v-181h-182z" />
<glyph unicode="@" d="M2 2v180h182v-180h-182zM2 374v181h182v-181h-182zM2 747v180h182v-180h-182zM2 1119v181h182v-181h-182zM374 -4h183v-180h-183v180zM374 188v181h183v-181h-183zM374 560v181h183v-181h-183zM374 1491v181h183v-181h-183zM747 2v180h182v-180h-182zM747 747v180h182 v-180h-182zM747 1491v181h182v-181h-182zM1119 2v180h182v-180h-182zM1119 374v181h182v-181h-182zM1119 747v180h182v-180h-182zM1119 1119v181h182v-181h-182z" />
<glyph unicode="A" d="M2 2v180h182v-180h-182zM2 374v181h182v-181h-182zM2 747v180h182v-180h-182zM2 1119v181h182v-181h-182zM374 747v180h183v-180h-183zM374 1491v181h183v-181h-183zM747 747v180h182v-180h-182zM747 1491v181h182v-181h-182zM1119 2v180h182v-180h-182zM1119 374v181 h182v-181h-182zM1119 747v180h182v-180h-182zM1119 1119v181h182v-181h-182z" />
<glyph unicode="B" d="M2 2v180h182v-180h-182zM2 374v181h182v-181h-182zM2 747v180h182v-180h-182zM2 1119v181h182v-181h-182zM2 1491v181h182v-181h-182zM374 2v180h183v-180h-183zM374 747v180h183v-180h-183zM374 1491v181h183v-181h-183zM747 2v180h182v-180h-182zM747 747v180h182v-180 h-182zM747 1119v181h182v-181h-182zM747 1491v181h182v-181h-182zM1119 2v180h182v-180h-182zM1119 374v181h182v-181h-182zM1119 747v180h182v-180h-182z" />
<glyph unicode="C" d="M2 374v181h182v-181h-182zM2 747v180h182v-180h-182zM2 1119v181h182v-181h-182zM374 2v180h183v-180h-183zM374 1491v181h183v-181h-183zM747 2v180h182v-180h-182zM747 1491v181h182v-181h-182zM1119 2v180h182v-180h-182zM1119 1491v181h182v-181h-182z" />
<glyph unicode="D" d="M2 2v180h182v-180h-182zM2 374v181h182v-181h-182zM2 747v180h182v-180h-182zM2 1119v181h182v-181h-182zM2 1491v181h182v-181h-182zM374 2v180h183v-180h-183zM374 1491v181h183v-181h-183zM747 2v180h182v-180h-182zM747 1491v181h182v-181h-182zM1119 374v181h182 v-181h-182zM1119 747v180h182v-180h-182zM1119 1119v181h182v-181h-182z" />
<glyph unicode="E" d="M2 2v180h182v-180h-182zM2 374v181h182v-181h-182zM2 747v180h182v-180h-182zM2 1119v181h182v-181h-182zM2 1491v181h182v-181h-182zM374 2v180h183v-180h-183zM374 747v180h183v-180h-183zM374 1491v181h183v-181h-183zM747 2v180h182v-180h-182zM747 747v180h182v-180 h-182zM747 1491v181h182v-181h-182zM1119 2v180h182v-180h-182zM1119 1491v181h182v-181h-182z" />
<glyph unicode="F" d="M2 2v180h182v-180h-182zM2 374v181h182v-181h-182zM2 747v180h182v-180h-182zM2 1119v181h182v-181h-182zM2 1491v181h182v-181h-182zM374 747v180h183v-180h-183zM374 1491v181h183v-181h-183zM747 747v180h182v-180h-182zM747 1491v181h182v-181h-182zM1119 1491v181 h182v-181h-182z" />
<glyph unicode="G" d="M2 374v181h182v-181h-182zM2 747v180h182v-180h-182zM2 1119v181h182v-181h-182zM374 2v180h183v-180h-183zM374 1491v181h183v-181h-183zM747 2v180h182v-180h-182zM747 747v180h182v-180h-182zM747 1491v181h182v-181h-182zM1119 2v180h182v-180h-182zM1119 374v181 h182v-181h-182zM1119 747v180h182v-180h-182zM1119 1491v181h182v-181h-182z" />
<glyph unicode="H" d="M2 2v180h182v-180h-182zM2 374v181h182v-181h-182zM2 747v180h182v-180h-182zM2 1119v181h182v-181h-182zM2 1491v181h182v-181h-182zM374 747v180h183v-180h-183zM747 747v180h182v-180h-182zM1119 2v180h182v-180h-182zM1119 374v181h182v-181h-182zM1119 747v180h182 v-180h-182zM1119 1119v181h182v-181h-182zM1119 1491v181h182v-181h-182z" />
<glyph unicode="I" horiz-adv-x="1303" d="M2 2v180h182v-180h-182zM2 1491v181h182v-181h-182zM374 2v180h183v-180h-183zM374 374v181h183v-181h-183zM374 747v180h183v-180h-183zM374 1119v181h183v-181h-183zM374 1491v181h183v-181h-183zM747 2v180h182v-180h-182zM747 1491v181h182v-181h-182z" />
<glyph unicode="J" d="M2 374v181h182v-181h-182zM374 2v180h183v-180h-183zM747 2v180h182v-180h-182zM747 1491v181h182v-181h-182zM1119 374v181h182v-181h-182zM1119 747v180h182v-180h-182zM1119 1119v181h182v-181h-182zM1119 1491v181h182v-181h-182z" />
<glyph unicode="K" d="M2 2v180h182v-180h-182zM2 374v181h182v-181h-182zM2 747v180h182v-180h-182zM2 1119v181h182v-181h-182zM2 1491v181h182v-181h-182zM374 747v180h183v-180h-183zM747 747v180h182v-180h-182zM747 1119v181h182v-181h-182zM1119 2v180h182v-180h-182zM1119 374v181h182 v-181h-182zM1119 1491v181h182v-181h-182z" />
<glyph unicode="L" d="M2 2v180h182v-180h-182zM2 374v181h182v-181h-182zM2 747v180h182v-180h-182zM2 1119v181h182v-181h-182zM2 1491v181h182v-181h-182zM374 2v180h183v-180h-183zM747 2v180h182v-180h-182zM1119 2v180h182v-180h-182z" />
<glyph unicode="M" d="M2 2v180h182v-180h-182zM2 374v181h182v-181h-182zM2 747v180h182v-180h-182zM2 1119v181h182v-181h-182zM2 1491v181h182v-181h-182zM374 1119v181h183v-181h-183zM560 747v180h183v-180h-183zM747 1119v181h182v-181h-182zM1119 2v180h182v-180h-182zM1119 374v181h182 v-181h-182zM1119 747v180h182v-180h-182zM1119 1119v181h182v-181h-182zM1119 1491v181h182v-181h-182z" />
<glyph unicode="N" d="M2 2v180h182v-180h-182zM2 374v181h182v-181h-182zM2 747v180h182v-180h-182zM2 1119v181h182v-181h-182zM2 1491v181h182v-181h-182zM374 1119v181h183v-181h-183zM747 747v180h182v-180h-182zM1119 2v180h182v-180h-182zM1119 374v181h182v-181h-182zM1119 747v180h182 v-180h-182zM1119 1119v181h182v-181h-182zM1119 1491v181h182v-181h-182z" />
<glyph unicode="O" d="M2 374v181h182v-181h-182zM2 747v180h182v-180h-182zM2 1119v181h182v-181h-182zM374 2v180h183v-180h-183zM374 1491v181h183v-181h-183zM747 2v180h182v-180h-182zM747 1491v181h182v-181h-182zM1119 374v181h182v-181h-182zM1119 747v180h182v-180h-182zM1119 1119 v181h182v-181h-182z" />
<glyph unicode="P" d="M2 2v180h182v-180h-182zM2 374v181h182v-181h-182zM2 747v180h182v-180h-182zM2 1119v181h182v-181h-182zM2 1491v181h182v-181h-182zM374 747v180h183v-180h-183zM374 1491v181h183v-181h-183zM747 747v180h182v-180h-182zM747 1491v181h182v-181h-182zM1119 1119v181 h182v-181h-182z" />
<glyph unicode="Q" d="M2 356v180h182v-180h-182zM2 728v181h182v-181h-182zM2 1100v181h182v-181h-182zM374 -17v181h183v-181h-183zM374 1473v180h183v-180h-183zM747 -17v181h182v-181h-182zM747 356v180h182v-180h-182zM747 1473v180h182v-180h-182zM1119 -17v181h182v-181h-182zM1119 356 v180h182v-180h-182zM1119 728v181h182v-181h-182zM1119 1100v181h182v-181h-182z" />
<glyph unicode="R" d="M2 -17v181h182v-181h-182zM2 356v180h182v-180h-182zM2 728v181h182v-181h-182zM2 1100v181h182v-181h-182zM2 1473v180h182v-180h-182zM374 728v181h183v-181h-183zM374 1473v180h183v-180h-183zM747 728v181h182v-181h-182zM747 1473v180h182v-180h-182zM1119 -17v181 h182v-181h-182zM1119 356v180h182v-180h-182zM1119 1100v181h182v-181h-182z" />
<glyph unicode="S" d="M2 188v181h182v-181h-182zM2 933v180h182v-180h-182zM2 1305v181h182v-181h-182zM374 2v180h183v-180h-183zM374 747v180h183v-180h-183zM374 1491v181h183v-181h-183zM747 2v180h182v-180h-182zM747 747v180h182v-180h-182zM747 1491v181h182v-181h-182zM1119 188v181 h182v-181h-182zM1119 560v181h182v-181h-182zM1119 1305v181h182v-181h-182z" />
<glyph unicode="T" d="M2 1491v181h182v-181h-182zM374 1491v181h183v-181h-183zM560 2v180h183v-180h-183zM560 374v181h183v-181h-183zM560 747v180h183v-180h-183zM560 1119v181h183v-181h-183zM747 1491v181h182v-181h-182zM1119 1491v181h182v-181h-182z" />
<glyph unicode="U" d="M2 374v181h182v-181h-182zM2 747v180h182v-180h-182zM2 1119v181h182v-181h-182zM2 1491v181h182v-181h-182zM374 2v180h183v-180h-183zM747 2v180h182v-180h-182zM1119 374v181h182v-181h-182zM1119 747v180h182v-180h-182zM1119 1119v181h182v-181h-182zM1119 1491v181 h182v-181h-182z" />
<glyph unicode="V" d="M2 747v180h182v-180h-182zM2 1119v181h182v-181h-182zM2 1491v181h182v-181h-182zM374 374v181h183v-181h-183zM560 2v180h183v-180h-183zM747 374v181h182v-181h-182zM1119 747v180h182v-180h-182zM1119 1119v181h182v-181h-182zM1119 1491v181h182v-181h-182z" />
<glyph unicode="W" d="M2 374v181h182v-181h-182zM2 747v180h182v-180h-182zM2 1119v181h182v-181h-182zM2 1491v181h182v-181h-182zM374 2v180h183v-180h-183zM560 374v181h183v-181h-183zM560 747v180h183v-180h-183zM560 1119v181h183v-181h-183zM560 1491v181h183v-181h-183zM747 2v180h182 v-180h-182zM1119 2v180h182v-180h-182zM1119 374v181h182v-181h-182zM1119 747v180h182v-180h-182zM1119 1119v181h182v-181h-182zM1119 1491v181h182v-181h-182z" />
<glyph unicode="X" d="M2 2v180h182v-180h-182zM2 1491v181h182v-181h-182zM374 374v181h183v-181h-183zM374 1119v181h183v-181h-183zM560 747v180h183v-180h-183zM747 374v181h182v-181h-182zM747 1119v181h182v-181h-182zM1119 2v180h182v-180h-182zM1119 1491v181h182v-181h-182z" />
<glyph unicode="Y" d="M2 1119v181h182v-181h-182zM2 1491v181h182v-181h-182zM374 747v180h183v-180h-183zM560 2v180h183v-180h-183zM560 374v181h183v-181h-183zM747 747v180h182v-180h-182zM1119 1119v181h182v-181h-182zM1119 1491v181h182v-181h-182z" />
<glyph unicode="Z" d="M2 2v180h182v-180h-182zM2 1491v181h182v-181h-182zM374 2v180h183v-180h-183zM374 374v181h183v-181h-183zM374 1491v181h183v-181h-183zM560 747v180h183v-180h-183zM747 2v180h182v-180h-182zM747 1119v181h182v-181h-182zM747 1491v181h182v-181h-182zM1119 2v180 h182v-180h-182zM1119 1491v181h182v-181h-182z" />
<glyph unicode="_" horiz-adv-x="2048" d="M2 2v180h182v-180h-182zM374 2v180h183v-180h-183zM747 2v180h182v-180h-182zM1119 2v180h182v-180h-182zM1491 2v180h183v-180h-183z" />
<glyph unicode="a" d="M0 374v181h181v-181h-181zM0 1119v181h181v-181h-181zM372 2v180h181v-180h-181zM372 560v181h181v-181h-181zM372 1119v181h181v-181h-181zM745 2v180h180v-180h-180zM745 560v181h180v-181h-180zM745 1119v181h180v-181h-180zM1117 2v180h181v-180h-181zM1117 374v181 h181v-181h-181zM1117 747v180h181v-180h-181z" />
<glyph unicode="b" d="M2 2v180h182v-180h-182zM2 374v181h182v-181h-182zM2 747v180h182v-180h-182zM2 1119v181h182v-181h-182zM2 1491v181h182v-181h-182zM374 2v180h183v-180h-183zM374 1119v181h183v-181h-183zM747 2v180h182v-180h-182zM747 1119v181h182v-181h-182zM1119 374v181h182 v-181h-182zM1119 747v180h182v-180h-182z" />
<glyph unicode="c" d="M2 374v181h182v-181h-182zM2 747v180h182v-180h-182zM374 2v180h183v-180h-183zM374 1119v181h183v-181h-183zM747 2v180h182v-180h-182zM747 1119v181h182v-181h-182zM1119 2v180h182v-180h-182zM1119 1119v181h182v-181h-182z" />
<glyph unicode="d" d="M2 374v181h182v-181h-182zM2 747v180h182v-180h-182zM374 2v180h183v-180h-183zM374 1119v181h183v-181h-183zM747 2v180h182v-180h-182zM747 1119v181h182v-181h-182zM1119 2v180h182v-180h-182zM1119 374v181h182v-181h-182zM1119 747v180h182v-180h-182zM1119 1119 v181h182v-181h-182zM1119 1491v181h182v-181h-182z" />
<glyph unicode="e" d="M2 374v181h182v-181h-182zM2 747v180h182v-180h-182zM374 2v180h183v-180h-183zM374 560v181h183v-181h-183zM374 1119v181h183v-181h-183zM747 2v180h182v-180h-182zM747 560v181h182v-181h-182zM747 1119v181h182v-181h-182zM1119 2v180h182v-180h-182zM1119 747v180 h182v-180h-182z" />
<glyph unicode="f" horiz-adv-x="1303" d="M2 2v180h182v-180h-182zM2 374v181h182v-181h-182zM2 747v180h182v-180h-182zM2 1119v181h182v-181h-182zM374 747v180h183v-180h-183zM374 1491v181h183v-181h-183zM747 747v180h182v-180h-182zM747 1491v181h182v-181h-182z" />
<glyph unicode="g" d="M2 -190h182v-181h-182v181zM2 747v180h182v-180h-182zM374 -190h183v-181h-183v181zM374 374v181h183v-181h-183zM374 1119v181h183v-181h-183zM747 -190h182v-181h-182v181zM747 374v181h182v-181h-182zM747 1119v181h182v-181h-182zM1119 2v180h182v-180h-182z M1119 374v181h182v-181h-182zM1119 747v180h182v-180h-182zM1119 1119v181h182v-181h-182z" />
<glyph unicode="h" d="M2 2v180h182v-180h-182zM2 374v181h182v-181h-182zM2 747v180h182v-180h-182zM2 1119v181h182v-181h-182zM2 1491v181h182v-181h-182zM374 747v180h183v-180h-183zM747 747v180h182v-180h-182zM1119 2v180h182v-180h-182zM1119 374v181h182v-181h-182z" />
<glyph unicode="i" horiz-adv-x="558" d="M0 2v180h181v-180h-181zM0 374v181h181v-181h-181zM0 747v180h181v-180h-181zM0 1491v181h181v-181h-181z" />
<glyph unicode="j" horiz-adv-x="930" d="M2 -190h182v-181h-182v181zM374 2v180h183v-180h-183zM374 374v181h183v-181h-183zM374 747v180h183v-180h-183zM374 1491v181h183v-181h-183z" />
<glyph unicode="k" d="M2 2v180h182v-180h-182zM2 374v181h182v-181h-182zM2 747v180h182v-180h-182zM2 1119v181h182v-181h-182zM2 1491v181h182v-181h-182zM374 747v180h183v-180h-183zM747 747v180h182v-180h-182zM1119 2v180h182v-180h-182zM1119 374v181h182v-181h-182zM1119 1119v181h182 v-181h-182z" />
<glyph unicode="l" horiz-adv-x="744" d="M2 374v181h182v-181h-182zM2 747v180h182v-180h-182zM2 1119v181h182v-181h-182zM2 1491v181h182v-181h-182zM374 2v180h183v-180h-183z" />
<glyph unicode="m" horiz-adv-x="2048" d="M2 2v180h182v-180h-182zM2 374v181h182v-181h-182zM2 747v180h182v-180h-182zM2 1119v181h182v-181h-182zM374 1119v181h183v-181h-183zM747 2v180h182v-180h-182zM747 374v181h182v-181h-182zM747 747v180h182v-180h-182zM747 1119v181h182v-181h-182zM1119 1119v181 h182v-181h-182zM1491 2v180h183v-180h-183zM1491 374v181h183v-181h-183zM1491 747v180h183v-180h-183z" />
<glyph unicode="n" d="M2 2v180h182v-180h-182zM2 374v181h182v-181h-182zM2 747v180h182v-180h-182zM2 1119v181h182v-181h-182zM374 1119v181h183v-181h-183zM747 1119v181h182v-181h-182zM1119 2v180h182v-180h-182zM1119 374v181h182v-181h-182zM1119 747v180h182v-180h-182z" />
<glyph unicode="o" d="M2 374v181h182v-181h-182zM2 747v180h182v-180h-182zM374 2v180h183v-180h-183zM374 1119v181h183v-181h-183zM747 2v180h182v-180h-182zM747 1119v181h182v-181h-182zM1119 374v181h182v-181h-182zM1119 747v180h182v-180h-182z" />
<glyph unicode="p" d="M2 2v180h182v-180h-182zM2 -190h182v-181h-182v181zM2 374v181h182v-181h-182zM2 747v180h182v-180h-182zM2 1119v181h182v-181h-182zM374 2v180h183v-180h-183zM374 1119v181h183v-181h-183zM747 2v180h182v-180h-182zM747 1119v181h182v-181h-182zM1119 374v181h182 v-181h-182zM1119 747v180h182v-180h-182z" />
<glyph unicode="q" d="M2 374v181h182v-181h-182zM2 747v180h182v-180h-182zM374 2v180h183v-180h-183zM374 1119v181h183v-181h-183zM747 2v180h182v-180h-182zM747 1119v181h182v-181h-182zM1119 2v180h182v-180h-182zM1119 -190h182v-181h-182v181zM1119 374v181h182v-181h-182zM1119 747 v180h182v-180h-182zM1119 1119v181h182v-181h-182z" />
<glyph unicode="r" d="M2 2v180h182v-180h-182zM2 374v181h182v-181h-182zM2 747v180h182v-180h-182zM2 1119v181h182v-181h-182zM374 747v180h183v-180h-183zM747 1119v181h182v-181h-182zM1119 1119v181h182v-181h-182z" />
<glyph unicode="s" d="M2 2v180h182v-180h-182zM2 747v180h182v-180h-182zM374 2v180h183v-180h-183zM374 560v181h183v-181h-183zM374 1119v181h183v-181h-183zM747 2v180h182v-180h-182zM747 560v181h182v-181h-182zM747 1119v181h182v-181h-182zM1119 374v181h182v-181h-182zM1119 1119v181 h182v-181h-182z" />
<glyph unicode="t" horiz-adv-x="1303" d="M2 374v181h182v-181h-182zM2 747v180h182v-180h-182zM2 1119v181h182v-181h-182zM2 1491v181h182v-181h-182zM374 2v180h183v-180h-183zM374 1119v181h183v-181h-183zM747 2v180h182v-180h-182zM747 1119v181h182v-181h-182z" />
<glyph unicode="u" d="M2 374v181h182v-181h-182zM2 747v180h182v-180h-182zM2 1119v181h182v-181h-182zM374 2v180h183v-180h-183zM747 2v180h182v-180h-182zM1119 2v180h182v-180h-182zM1119 374v181h182v-181h-182zM1119 747v180h182v-180h-182zM1119 1119v181h182v-181h-182z" />
<glyph unicode="v" d="M2 747v180h182v-180h-182zM2 1119v181h182v-181h-182zM374 374v181h183v-181h-183zM560 2v180h183v-180h-183zM747 374v181h182v-181h-182zM1119 747v180h182v-180h-182zM1119 1119v181h182v-181h-182z" />
<glyph unicode="w" d="M2 374v181h182v-181h-182zM2 747v180h182v-180h-182zM2 1119v181h182v-181h-182zM374 2v180h183v-180h-183zM560 374v181h183v-181h-183zM560 747v180h183v-180h-183zM560 1119v181h183v-181h-183zM747 2v180h182v-180h-182zM1119 2v180h182v-180h-182zM1119 374v181h182 v-181h-182zM1119 747v180h182v-180h-182zM1119 1119v181h182v-181h-182z" />
<glyph unicode="x" d="M2 2v180h182v-180h-182zM2 1119v181h182v-181h-182zM374 374v181h183v-181h-183zM374 747v180h183v-180h-183zM747 374v181h182v-181h-182zM747 747v180h182v-180h-182zM1119 2v180h182v-180h-182zM1119 1119v181h182v-181h-182z" />
<glyph unicode="y" d="M2 747v180h182v-180h-182zM2 1119v181h182v-181h-182zM374 -190h183v-181h-183v181zM374 374v181h183v-181h-183zM747 -190h182v-181h-182v181zM747 374v181h182v-181h-182zM1119 2v180h182v-180h-182zM1119 374v181h182v-181h-182zM1119 747v180h182v-180h-182z M1119 1119v181h182v-181h-182z" />
<glyph unicode="z" d="M2 2v180h182v-180h-182zM2 1119v181h182v-181h-182zM374 2v180h183v-180h-183zM374 374v181h183v-181h-183zM374 1119v181h183v-181h-183zM747 2v180h182v-180h-182zM747 747v180h182v-180h-182zM747 1119v181h182v-181h-182zM1119 2v180h182v-180h-182zM1119 1119v181 h182v-181h-182z" />
<glyph unicode="&#xa5;" d="M2 747v180h182v-180h-182zM2 1119v181h182v-181h-182zM188 1491v181h183v-181h-183zM374 747v180h183v-180h-183zM374 1119v181h183v-181h-183zM560 2v180h183v-180h-183zM560 374v181h183v-181h-183zM747 747v180h182v-180h-182zM747 1119v181h182v-181h-182zM933 1491 v181h182v-181h-182zM1119 747v180h182v-180h-182zM1119 1119v181h182v-181h-182z" />
<glyph unicode="&#xad;" d="M2 747v180h182v-180h-182zM374 747v180h183v-180h-183zM747 747v180h182v-180h-182zM1119 747v180h182v-180h-182z" />
<glyph unicode="&#x2000;" horiz-adv-x="836" />
<glyph unicode="&#x2001;" horiz-adv-x="1672" />
<glyph unicode="&#x2002;" horiz-adv-x="836" />
<glyph unicode="&#x2003;" horiz-adv-x="1672" />
<glyph unicode="&#x2004;" horiz-adv-x="557" />
<glyph unicode="&#x2005;" horiz-adv-x="418" />
<glyph unicode="&#x2006;" horiz-adv-x="278" />
<glyph unicode="&#x2007;" horiz-adv-x="278" />
<glyph unicode="&#x2008;" horiz-adv-x="209" />
<glyph unicode="&#x2009;" horiz-adv-x="334" />
<glyph unicode="&#x200a;" horiz-adv-x="92" />
<glyph unicode="&#x2010;" d="M2 747v180h182v-180h-182zM374 747v180h183v-180h-183zM747 747v180h182v-180h-182zM1119 747v180h182v-180h-182z" />
<glyph unicode="&#x2011;" d="M2 747v180h182v-180h-182zM374 747v180h183v-180h-183zM747 747v180h182v-180h-182zM1119 747v180h182v-180h-182z" />
<glyph unicode="&#x2012;" d="M2 747v180h182v-180h-182zM374 747v180h183v-180h-183zM747 747v180h182v-180h-182zM1119 747v180h182v-180h-182z" />
<glyph unicode="&#x2013;" horiz-adv-x="1400" d="M2 747v180h143v-180h-143zM295 747v180h145v-180h-145zM589 747v180h144v-180h-144zM883 747v180h143v-180h-143z" />
<glyph unicode="&#x2014;" horiz-adv-x="2424" d="M2 747v180h287v-180h-287zM588 747v180h289v-180h-289zM1177 747v180h287v-180h-287zM1763 747v180h287v-180h-287z" />
<glyph unicode="&#x202f;" horiz-adv-x="334" />
<glyph unicode="&#x205f;" horiz-adv-x="418" />
<glyph unicode="&#x25fc;" horiz-adv-x="1303" d="M0 0v1303h1303v-1303h-1303z" />
</font>
</defs>
</svg>
